<svg viewBox="0 0 64.76 60.54" xmlns="http://www.w3.org/2000/svg"><path d="m55.51 3.94a2.17 2.17 0 0 1 2.17 2.17v48.41a2.18 2.18 0 0 1 -2.17 2.18h-52.08a2.18 2.18 0 0 1 -2.17-2.18v-48.41a2.17 2.17 0 0 1 2.17-2.17z" fill="#fff" stroke="#010101" stroke-miterlimit="10"/><path d="m.5 6.11v13.5h57.94v-13.5a2.93 2.93 0 0 0 -2.93-2.93h-52.08a2.93 2.93 0 0 0 -2.93 2.93z" fill="#fff" stroke="#010101" stroke-miterlimit="10"/><path d="m43.87 6.44a1.56 1.56 0 0 1 -1.69-1.37v-3.7a1.73 1.73 0 0 1 3.38 0v3.7a1.56 1.56 0 0 1 -1.69 1.37z" fill="#010101"/><path d="m15.08 6.44a1.56 1.56 0 0 1 -1.69-1.37v-3.7a1.55 1.55 0 0 1 1.69-1.37 1.55 1.55 0 0 1 1.68 1.37v3.7a1.55 1.55 0 0 1 -1.68 1.37z" fill="#010101"/><g stroke="#010101" stroke-miterlimit="10"><g fill="#3389c9"><path d="m8.37 26.62h9.38v8.99h-9.38z"/><path d="m24.78 26.62h9.38v8.99h-9.38z"/><path d="m41.2 26.62h9.38v8.99h-9.38z"/><path d="m8.37 40.96h9.38v8.99h-9.38z"/><path d="m24.78 40.96h9.38v8.99h-9.38z"/><path d="m41.2 40.96h9.38v8.99h-9.38z"/></g><circle cx="54.76" cy="50.55" fill="#fff" r="9.5"/><path d="m54.76 41.49a9.06 9.06 0 1 0 9.06 9.06 9.06 9.06 0 0 0 -9.06-9.06z" fill="#fff"/></g><path d="m61.51 51.5h-7.7v-6.75h1.9v4.85h5.8z" fill="#010101"/></svg>