<svg viewBox="0 0 48.27 50.54" xmlns="http://www.w3.org/2000/svg"><path d="m2.92 22.37h42.44v27.67h-42.44z" fill="#fff" stroke="#010101" stroke-miterlimit="10"/><path d="m.5 10.17h47.27v12.2h-47.27z" fill="#fff" stroke="#010101" stroke-miterlimit="10"/><g fill="#3389c9"><path d="m18.54 10.17h11.19v12.2h-11.19z"/><path d="m19.75 22.37h8.77v27.67h-8.77z"/><path d="m26.37 10.17h-4.46v-2.7a.86.86 0 0 1 .86-.85h2.75a.85.85 0 0 1 .85.85z"/></g><path d="m19.75 22.37h8.77v2.18h-8.77z" fill="#010101"/><path d="m42.55 0h-9.65a6.52 6.52 0 0 0 -6.53 6.52v3.65h17.22v-9.17a1 1 0 0 0 -1.04-1z" fill="#3389c9"/><path d="m5.74 0h9.65a6.52 6.52 0 0 1 6.52 6.52v3.65h-17.21v-9.17a1 1 0 0 1 1.04-1z" fill="#3389c9"/><g fill="#010101"><path d="m21.91 9.29h4.46v.88h-4.46z"/><path d="m4.7 9.29h17.21v.88h-17.21z"/><path d="m26.37 9.29h17.21v.88h-17.21z"/></g></svg>