<svg viewBox="0 0 51.12 34.19" xmlns="http://www.w3.org/2000/svg"><path d="m39.49 5.47a1.18 1.18 0 0 0 -.37 0l-1.31.36-1.38-3.32a3.23 3.23 0 0 0 -2.43-1.8h-13.68a3.23 3.23 0 0 0 -2.4 1.8l-1.38 3.36-1.29-.35a1.22 1.22 0 0 0 -.37 0 1.13 1.13 0 0 0 -1.15 1.2v.72a1.48 1.48 0 0 0 1.48 1.48h.1l-.2.48a11.25 11.25 0 0 0 -.7 3.54v6.66a1.48 1.48 0 0 0 1.48 1.48h1.79a1.48 1.48 0 0 0 1.48-1.48v-1.6h16v1.6a1.48 1.48 0 0 0 1.48 1.48h1.78a1.48 1.48 0 0 0 1.48-1.48v-6.71a11.24 11.24 0 0 0 -.69-3.54l-.21-.48h.11a1.48 1.48 0 0 0 1.48-1.48v-.72a1.13 1.13 0 0 0 -1.1-1.2z" fill="#fff" stroke="#000" stroke-miterlimit="10" stroke-width=".1"/><path d="m39.49 5.47a1.18 1.18 0 0 0 -.37 0l-1.31.36-1.38-3.32a3.23 3.23 0 0 0 -2.43-1.8h-13.68a3.23 3.23 0 0 0 -2.4 1.8l-1.38 3.36-1.29-.35a1.22 1.22 0 0 0 -.37 0 1.13 1.13 0 0 0 -1.15 1.2v.72a1.48 1.48 0 0 0 1.48 1.48h.1l-.2.48a11.25 11.25 0 0 0 -.7 3.54v6.66a1.48 1.48 0 0 0 1.48 1.48h1.79a1.48 1.48 0 0 0 1.48-1.48v-1.6h16v1.6a1.48 1.48 0 0 0 1.48 1.48h1.78a1.48 1.48 0 0 0 1.48-1.48v-6.71a11.24 11.24 0 0 0 -.69-3.54l-.21-.48h.11a1.48 1.48 0 0 0 1.48-1.48v-.72a1.13 1.13 0 0 0 -1.1-1.2zm-21.91 2.58 2.1-5.12a1.93 1.93 0 0 1 1.64-1.09h11.68a1.9 1.9 0 0 1 1.63 1.09l2.1 5.12a.73.73 0 0 1 -.73 1.09h-17.68a.74.74 0 0 1 -.74-1.09zm4.75 6.58a.59.59 0 0 1 -.6.59h-4a.59.59 0 0 1 -.6-.59v-1.9a.59.59 0 0 1 .6-.59h4a.59.59 0 0 1 .6.59zm14.84 0a.58.58 0 0 1 -.59.59h-4a.59.59 0 0 1 -.6-.59v-1.9a.59.59 0 0 1 .6-.59h4a.58.58 0 0 1 .59.59z" fill="none" stroke="#000" stroke-miterlimit="10" stroke-width=".1"/><path d="m26.06 15a1.65 1.65 0 0 0 -.38.05l-1.3.36-1.38-3.32a3.26 3.26 0 0 0 -2.4-1.81h-13.72a3.24 3.24 0 0 0 -2.39 1.81l-1.38 3.36-1.29-.36a1.64 1.64 0 0 0 -.37-.09 1.14 1.14 0 0 0 -1.15 1.25v.75a1.48 1.48 0 0 0 1.48 1.48h.1l-.2.48a11 11 0 0 0 -.68 3.5v6.71a1.48 1.48 0 0 0 1.48 1.48h1.76a1.49 1.49 0 0 0 1.49-1.48v-1.65h16v1.65a1.48 1.48 0 0 0 1.48 1.48h1.79a1.48 1.48 0 0 0 1.48-1.48v-6.71a11 11 0 0 0 -.7-3.54l-.19-.48h.11a1.48 1.48 0 0 0 1.5-1.44v-.71a1.14 1.14 0 0 0 -1.14-1.29z" fill="#fff"/><path d="m49.65 18.22a1.24 1.24 0 0 0 -.38.05l-1.3.36-1.38-3.37a3.24 3.24 0 0 0 -2.4-1.8h-13.72a3.23 3.23 0 0 0 -2.39 1.8l-1.38 3.36-1.29-.35a1.22 1.22 0 0 0 -.37-.05 1.13 1.13 0 0 0 -1.15 1.2v.72a1.48 1.48 0 0 0 1.48 1.48h.1l-.2.48a11 11 0 0 0 -.7 3.54v6.71a1.49 1.49 0 0 0 1.48 1.48h1.78a1.49 1.49 0 0 0 1.49-1.48v-1.65h16v1.65a1.48 1.48 0 0 0 1.48 1.48h1.78a1.48 1.48 0 0 0 1.48-1.48v-6.71a11 11 0 0 0 -.7-3.54l-.19-.48h.11a1.48 1.48 0 0 0 1.48-1.48v-.72a1.13 1.13 0 0 0 -1.11-1.2z" fill="#fff"/><path d="m26.06 15a1.65 1.65 0 0 0 -.38.05l-1.3.36-1.38-3.32a3.26 3.26 0 0 0 -2.4-1.81h-13.72a3.24 3.24 0 0 0 -2.39 1.81l-1.38 3.36-1.29-.36a1.64 1.64 0 0 0 -.37-.09 1.14 1.14 0 0 0 -1.15 1.25v.75a1.48 1.48 0 0 0 1.48 1.48h.1l-.2.48a11 11 0 0 0 -.68 3.5v6.71a1.48 1.48 0 0 0 1.48 1.48h1.76a1.49 1.49 0 0 0 1.49-1.48v-1.65h16v1.65a1.48 1.48 0 0 0 1.48 1.48h1.79a1.48 1.48 0 0 0 1.48-1.48v-6.71a11 11 0 0 0 -.7-3.54l-.19-.48h.11a1.48 1.48 0 0 0 1.5-1.44v-.71a1.14 1.14 0 0 0 -1.14-1.29zm-21.91 2.62 2.1-5.11a1.92 1.92 0 0 1 1.64-1.1h11.71a1.9 1.9 0 0 1 1.63 1.1l2.1 5.11a.74.74 0 0 1 -.74 1.09h-17.7a.74.74 0 0 1 -.74-1.09zm4.74 6.58a.58.58 0 0 1 -.59.59h-4a.59.59 0 0 1 -.59-.59v-1.9a.6.6 0 0 1 .59-.59h4a.59.59 0 0 1 .59.59zm14.85 0a.59.59 0 0 1 -.59.59h-4a.59.59 0 0 1 -.59-.59v-1.9a.6.6 0 0 1 .59-.59h4a.6.6 0 0 1 .59.59z" fill="none" stroke="#000" stroke-miterlimit="10" stroke-width=".1"/><path d="m49.65 18.22a1.24 1.24 0 0 0 -.38.05l-1.3.36-1.38-3.37a3.24 3.24 0 0 0 -2.4-1.8h-13.72a3.23 3.23 0 0 0 -2.39 1.8l-1.38 3.36-1.29-.35a1.22 1.22 0 0 0 -.37-.05 1.13 1.13 0 0 0 -1.15 1.2v.72a1.48 1.48 0 0 0 1.48 1.48h.1l-.2.48a11 11 0 0 0 -.7 3.54v6.71a1.49 1.49 0 0 0 1.48 1.48h1.78a1.49 1.49 0 0 0 1.49-1.48v-1.65h16v1.65a1.48 1.48 0 0 0 1.48 1.48h1.78a1.48 1.48 0 0 0 1.48-1.48v-6.71a11 11 0 0 0 -.7-3.54l-.19-.48h.11a1.48 1.48 0 0 0 1.48-1.48v-.72a1.13 1.13 0 0 0 -1.11-1.2zm-21.91 2.57 2.1-5.11a1.93 1.93 0 0 1 1.64-1.09h11.71a1.91 1.91 0 0 1 1.63 1.09l2.1 5.11a.74.74 0 0 1 -.74 1.1h-17.7a.75.75 0 0 1 -.74-1.1zm4.74 6.59a.59.59 0 0 1 -.59.59h-4a.6.6 0 0 1 -.6-.59v-1.9a.6.6 0 0 1 .6-.6h4a.59.59 0 0 1 .59.6zm14.85 0a.6.6 0 0 1 -.59.59h-4a.6.6 0 0 1 -.59-.59v-1.9a.6.6 0 0 1 .59-.6h4a.6.6 0 0 1 .59.6z" fill="#308aca"/></svg>