<svg width="21" height="21" viewBox="0 0 21 21" fill="none" xmlns="http://www.w3.org/2000/svg">
<path d="M13.5625 4.375C14.7914 4.375 15.4059 4.375 15.8472 4.66993C16.0383 4.79761 16.2024 4.96167 16.3301 5.15275C16.625 5.59414 16.625 6.2086 16.625 7.4375V15.75C16.625 17.3999 16.625 18.2249 16.1124 18.7374C15.5999 19.25 14.7749 19.25 13.125 19.25H7.875C6.22508 19.25 5.40013 19.25 4.88756 18.7374C4.375 18.2249 4.375 17.3999 4.375 15.75V7.4375C4.375 6.2086 4.375 5.59414 4.66993 5.15275C4.79761 4.96167 4.96167 4.79761 5.15275 4.66993C5.59414 4.375 6.2086 4.375 7.4375 4.375" stroke="#6B7820"/>
<path d="M7.875 4.375C7.875 3.4085 8.6585 2.625 9.625 2.625H11.375C12.3415 2.625 13.125 3.4085 13.125 4.375C13.125 5.3415 12.3415 6.125 11.375 6.125H9.625C8.6585 6.125 7.875 5.3415 7.875 4.375Z" stroke="#6B7820"/>
<path d="M7.875 10.5L13.125 10.5" stroke="#6B7820" stroke-linecap="round"/>
<path d="M7.875 14L11.375 14" stroke="#6B7820" stroke-linecap="round"/>
</svg>
