<svg width="30" height="30" viewBox="0 0 30 30" fill="none" xmlns="http://www.w3.org/2000/svg">
<circle opacity="0.1" cx="15" cy="15" r="15" fill="black"/>
<path fill-rule="evenodd" clip-rule="evenodd" d="M16.8004 8.33334C19.0618 8.33334 20.3591 9.45267 20.3591 11.4027V21.0933C20.3591 21.5 20.1498 21.866 19.7978 22.0707C19.4471 22.276 19.0244 22.28 18.6698 22.08L14.6964 19.8353L10.6864 22.0847C10.5131 22.182 10.3231 22.2313 10.1324 22.2313C9.93576 22.2313 9.73909 22.1787 9.56042 22.0733C9.20909 21.8687 8.99976 21.5027 8.99976 21.0967V11.2807C8.99976 9.40734 10.2978 8.33334 12.5611 8.33334H16.8004ZM16.8004 9.33334H12.5611C10.8618 9.33334 9.99976 9.988 9.99976 11.2807V21.0967C9.99976 21.1593 10.0358 21.1933 10.0658 21.2107C10.0958 21.2293 10.1431 21.2427 10.1978 21.212L14.4524 18.8253C14.6044 18.7407 14.7904 18.74 14.9431 18.826L19.1611 21.2087C19.2164 21.2407 19.2638 21.226 19.2938 21.208C19.3238 21.19 19.3591 21.156 19.3591 21.0933L19.3588 11.3267C19.3538 10.7529 19.2428 9.33334 16.8004 9.33334ZM17.093 12.819C17.369 12.819 17.593 13.043 17.593 13.319C17.593 13.595 17.369 13.819 17.093 13.819H12.2143C11.9383 13.819 11.7143 13.595 11.7143 13.319C11.7143 13.043 11.9383 12.819 12.2143 12.819H17.093Z" fill="black"/>
</svg>
