<svg width="8" height="8" viewBox="0 0 8 8" fill="none" xmlns="http://www.w3.org/2000/svg">
<path d="M1.3335 2.70711C1.3335 2.25435 1.51335 1.82014 1.8335 1.5V1.5C2.15364 1.17986 2.58785 1 3.0406 1H4.95972C5.41248 1 5.84668 1.17986 6.16683 1.5V1.5C6.48697 1.82014 6.66683 2.25435 6.66683 2.70711V4.33333C6.66683 4.95331 6.66683 5.26331 6.59868 5.51764C6.41375 6.20782 5.87465 6.74692 5.18447 6.93185C4.93013 7 4.62014 7 4.00016 7V7C3.38018 7 3.07019 7 2.81586 6.93185C2.12567 6.74692 1.58658 6.20782 1.40164 5.51764C1.3335 5.26331 1.3335 4.95331 1.3335 4.33333V2.70711Z" stroke="#6E7831" stroke-width="0.5"/>
<path d="M1.3335 2.33334H6.66683" stroke="#6E7831" stroke-width="0.5" stroke-linecap="round"/>
<path d="M3 3.66666C3 3.93188 3.10536 4.18623 3.29289 4.37377C3.48043 4.56131 3.73478 4.66666 4 4.66666C4.26522 4.66666 4.51957 4.56131 4.70711 4.37377C4.89464 4.18623 5 3.93188 5 3.66666" stroke="#6E7831" stroke-width="0.5" stroke-linecap="round"/>
</svg>
