<svg width="27" height="27" viewBox="0 0 27 27" fill="none" xmlns="http://www.w3.org/2000/svg">
<path d="M6.02446 8.3587C6.29414 8.17891 6.42898 8.08902 6.57486 8.02533C6.70434 7.96881 6.84003 7.92773 6.97912 7.90293C7.13582 7.875 7.29788 7.875 7.62199 7.875H19.378C19.7021 7.875 19.8642 7.875 20.0209 7.90293C20.16 7.92773 20.2957 7.96881 20.4251 8.02533C20.571 8.08902 20.7059 8.17891 20.9755 8.3587L22.3425 9.27002C22.8114 9.58261 23.0459 9.73891 23.2156 9.9454C23.3658 10.1282 23.4786 10.3389 23.5473 10.5653C23.625 10.821 23.625 11.1028 23.625 11.6663V16.245C23.625 17.2531 23.625 17.7571 23.4288 18.1422C23.2562 18.4809 22.9809 18.7562 22.6422 18.9288C22.2571 19.125 21.7531 19.125 20.745 19.125H6.255C5.24691 19.125 4.74286 19.125 4.35782 18.9288C4.01913 18.7562 3.74376 18.4809 3.57119 18.1422C3.375 17.7571 3.375 17.2531 3.375 16.245V11.6663C3.375 11.1028 3.375 10.821 3.45267 10.5653C3.52143 10.3389 3.63417 10.1282 3.78442 9.9454C3.95414 9.73891 4.18858 9.58261 4.65746 9.27002L6.02446 8.3587Z" stroke="#6B7820"/>
<path d="M23.0625 12.375H20.3611C19.7597 12.375 19.459 12.375 19.2173 12.5243C18.9757 12.6737 18.8412 12.9427 18.5722 13.4806L18.5528 13.5194C18.2838 14.0573 18.1493 14.3263 17.9077 14.4757C17.666 14.625 17.3653 14.625 16.7639 14.625H10.2361C9.63466 14.625 9.33395 14.625 9.0923 14.4757C8.85065 14.3263 8.71617 14.0573 8.44721 13.5194L8.42779 13.4806C8.15883 12.9427 8.02435 12.6737 7.7827 12.5243C7.54105 12.375 7.24034 12.375 6.63893 12.375H3.375" stroke="#6B7820" stroke-linejoin="round"/>
</svg>
