<svg width="34" height="34" viewBox="0 0 34 34" fill="none" xmlns="http://www.w3.org/2000/svg">
<circle cx="17" cy="17" r="16.5" fill="white" stroke="#6E7831"/>
<path d="M10.9762 19.1801C11.2345 17.5009 11.3637 16.6613 11.7396 16.0108C12.1946 15.2235 12.9042 14.6147 13.7515 14.2847C14.4516 14.0121 15.3011 14.0121 17.0001 14.0121V14.0121C18.699 14.0121 19.5485 14.0121 20.2486 14.2847C21.0959 14.6147 21.8056 15.2235 22.2605 16.0108C22.6364 16.6613 22.7656 17.5009 23.0239 19.1801L23.3683 21.4186C23.5331 22.4895 23.6155 23.025 23.3162 23.3739C23.0169 23.7227 22.4751 23.7227 21.3916 23.7227H12.6086C11.525 23.7227 10.9833 23.7227 10.684 23.3739C10.3847 23.025 10.4671 22.4895 10.6318 21.4186L10.9762 19.1801Z" fill="#6E7831"/>
<path d="M14.3856 16.253L14.3856 13.6386C14.3856 12.1947 15.5561 11.0242 17 11.0242V11.0242C18.4439 11.0242 19.6144 12.1947 19.6144 13.6386L19.6144 16.253" stroke="#6E7831" stroke-linecap="round"/>
</svg>
