<svg fill="none" height="30" viewBox="0 0 30 30" width="30" xmlns="http://www.w3.org/2000/svg"><g fill="#000"><circle cx="15" cy="15" opacity=".1" r="15"/><path d="m11.1398 20.8125-.0002.0001-.0092.0031c-.2408.0827-.533.183-.8246.2016-.3028.0194-.61599-.0486-.88087-.3125l-.00026-.0003c-.26383-.2641-.33249-.5764-.31394-.8787.01788-.2915.11761-.5836.1998-.8243l.00276-.0081.00002-.0001c.04174-.1221.08211-.2407.11227-.3518.03045-.1121.04769-.207.04769-.2819 0-.0553-.01358-.1268-.0449-.2259-.03089-.0977-.07579-.2127-.13285-.3545-1.08045-2.3373-.5795-5.1515 1.25518-6.985 1.1716-1.17218 2.7315-1.81831 4.3911-1.81831s3.2201.64553 4.3917 1.81771c2.4221 2.4221 2.4221 6.3624 0 8.7845zm0 0c.1211-.0418.2387-.0823.3487-.1127.111-.0308.2042-.0483.2767-.0488.056.0001.1337.0166.2354.0497.0992.0324.2088.0763.3282.1241.8306.3838 1.7181.5699 2.5995.5699 1.6188 0 3.2175-.6283 4.4052-1.8166zm.2207-9.208-.0001.0001c-1.49685 1.4957-1.90448 3.7934-1.0146 5.7172l.0031.0067-.0002.0001.0025.0061c.129.3193.2678.6626.2678 1.0249 0 .354-.1195.705-.217.9913l-.0041.0122-.0001.0001c-.0417.1223-.0909.2667-.1204.3897-.0116.0486-.019.0893-.0223.1212.0317-.0034.0721-.011.1203-.0228.1193-.0292.2585-.0769.3786-.1181l.0131-.0044.0001-.0001.0196-.0067c.2817-.0963.6268-.2143.974-.2167h.001c.3564 0 .6882.1335 1.0051.2611l.0128.0051.0071.0029-.0001.0001c1.9431.8985 4.2408.4894 5.737-1.0062m-7.1632-7.1638 3.5819-1.63288c1.3937 0 2.7029.54188 3.6874 1.52628 2.0331 2.0331 2.0331 5.3422 0 7.3765l-.1061-.1061m-7.1632-7.1638c.9557-.9563 2.2273-1.4829 3.5819-1.4829 1.354 0 2.625.5261 3.5813 1.4824 1.9745 1.9745 1.9746 5.1886 0 7.1643m-7.1632-7.1638 7.1632 7.1638m-.6422-3.3486c0-.3948-.3198-.7139-.7138-.7139h-.0051c-.3949 0-.711.3201-.711.7139 0 .3955.3229.7138.7161.7138.394 0 .7138-.3191.7138-.7138zm-2.2602 0c0-.3948-.3199-.7139-.7138-.7139h-.0051c-.3956 0-.711.3202-.711.7139 0 .3955.3229.7138.7161.7138.3939 0 .7138-.3191.7138-.7138zm-2.2605 0c0-.3948-.3198-.7139-.7138-.7139h-.0051c-.3949 0-.711.3201-.711.7139 0 .3955.3229.7138.7161.7138.394 0 .7138-.3191.7138-.7138z" stroke="#000" stroke-width=".3"/></g></svg>