<svg width="19" height="19" viewBox="0 0 19 19" fill="none" xmlns="http://www.w3.org/2000/svg">
<path d="M13.4583 2.375L13.4583 5.54167" stroke="#6B7820" stroke-width="1.2" stroke-linecap="round"/>
<path d="M5.54167 2.375L5.54167 5.54167" stroke="#6B7820" stroke-width="1.2" stroke-linecap="round"/>
<path d="M2.375 8.70833C2.375 6.86323 2.375 5.94068 2.93784 5.35911C2.95301 5.34344 2.96844 5.32801 2.98411 5.31284C3.56568 4.75 4.48823 4.75 6.33333 4.75H12.6667C14.5118 4.75 15.4343 4.75 16.0159 5.31284C16.0316 5.32801 16.047 5.34344 16.0622 5.35911C16.625 5.94068 16.625 6.86323 16.625 8.70833V8.70833H2.375V8.70833Z" stroke="#6B7820"/>
<rect x="2.375" y="4.75" width="14.25" height="11.875" rx="2" stroke="#6B7820"/>
<path d="M4.75 11.875H7.91667" stroke="#6B7820" stroke-linecap="round"/>
<path d="M11.0833 11.875H14.25" stroke="#6B7820" stroke-linecap="round"/>
<path d="M4.75 14.25H7.91667" stroke="#6B7820" stroke-linecap="round"/>
<path d="M11.0833 14.25H14.25" stroke="#6B7820" stroke-linecap="round"/>
</svg>
