<svg width="40" height="40" viewBox="0 0 40 40" fill="none" xmlns="http://www.w3.org/2000/svg">
<rect opacity="0.1" width="40" height="40" rx="12" fill="#6E7831"/>
<path d="M20 20C22.7614 20 25 17.7614 25 15C25 12.2386 22.7614 10 20 10C17.2386 10 15 12.2386 15 15C15 17.7614 17.2386 20 20 20Z" stroke="#6E7831" stroke-width="1.5" stroke-linecap="round" stroke-linejoin="round"/>
<path d="M11.41 30C11.41 26.13 15.26 23 20 23C20.96 23 21.89 23.13 22.76 23.37" stroke="#6E7831" stroke-width="1.5" stroke-linecap="round" stroke-linejoin="round"/>
<path d="M30 26C30 26.32 29.96 26.63 29.88 26.93C29.79 27.33 29.63 27.72 29.42 28.06C28.73 29.22 27.46 30 26 30C24.97 30 24.04 29.61 23.34 28.97C23.04 28.71 22.78 28.4 22.58 28.06C22.21 27.46 22 26.75 22 26C22 24.92 22.43 23.93 23.13 23.21C23.86 22.46 24.88 22 26 22C27.18 22 28.25 22.51 28.97 23.33C29.61 24.04 30 24.98 30 26Z" stroke="#6E7831" stroke-width="1.5" stroke-miterlimit="10" stroke-linecap="round" stroke-linejoin="round"/>
<path d="M27.03 24.9399L24.92 27.0499" stroke="#6E7831" stroke-width="1.5" stroke-miterlimit="10" stroke-linecap="round" stroke-linejoin="round"/>
<path d="M24.94 24.96L27.06 27.0699" stroke="#6E7831" stroke-width="1.5" stroke-miterlimit="10" stroke-linecap="round" stroke-linejoin="round"/>
</svg>
