<svg width="30" height="30" viewBox="0 0 30 30" fill="none" xmlns="http://www.w3.org/2000/svg">
<circle opacity="0.1" cx="15" cy="15" r="15" fill="black"/>
<path fill-rule="evenodd" clip-rule="evenodd" d="M18.3418 13.9913L19.0831 13.25C19.7274 12.6057 19.7274 11.561 19.0831 10.9167C18.4388 10.2723 17.3941 10.2723 16.7498 10.9167L15.9943 11.6722C16.5398 12.6475 17.3527 13.4539 18.3418 13.9913ZM14.5392 13.1273L11.1895 16.4769C10.7644 16.902 10.5519 17.1145 10.4122 17.3756C10.2724 17.6367 10.2135 17.9315 10.0956 18.5209L9.89686 19.5146C9.83034 19.8472 9.79708 20.0135 9.89168 20.1081C9.98629 20.2027 10.1526 20.1694 10.4852 20.1029L11.4789 19.9042C12.0683 19.7863 12.363 19.7273 12.6241 19.5876C12.8852 19.4479 13.0978 19.2353 13.5228 18.8103L16.8829 15.4502C15.9455 14.8472 15.1475 14.0545 14.5392 13.1273Z" fill="#222222"/>
</svg>
