<svg width="20" height="20" viewBox="0 0 20 20" fill="none" xmlns="http://www.w3.org/2000/svg">
<path d="M14.7098 0.0742188C18.0782 0.0742188 20.0001 1.97632 20.0001 5.35453V14.6075C20.0001 17.9658 18.0881 19.8878 14.7198 19.8878H5.46683C2.08862 19.8878 0.186523 17.9658 0.186523 14.6075V5.35453C0.186523 1.97632 2.08862 0.0742188 5.46683 0.0742188H14.7098ZM10.0834 5.53285C9.62768 5.53285 9.26113 5.8994 9.26113 6.35511V9.14882H6.45751C6.23956 9.14882 6.03152 9.23798 5.87301 9.38658C5.72441 9.54509 5.63525 9.75214 5.63525 9.97108C5.63525 10.4268 6.0018 10.7933 6.45751 10.8033H9.26113V13.6069C9.26113 14.0626 9.62768 14.4291 10.0834 14.4291C10.5391 14.4291 10.9056 14.0626 10.9056 13.6069V10.8033H13.7192C14.1749 10.7933 14.5414 10.4268 14.5414 9.97108C14.5414 9.51537 14.1749 9.14882 13.7192 9.14882H10.9056V6.35511C10.9056 5.8994 10.5391 5.53285 10.0834 5.53285Z" fill="#6E7831"/>
</svg>
