<svg width="36" height="36" viewBox="0 0 36 36" fill="none" xmlns="http://www.w3.org/2000/svg">
<path d="M30.9199 16.5375C30.9094 15.5883 30.9059 14.632 30.9023 13.6793H28.0617C28.0512 14.6285 28.0441 15.5813 28.0371 16.5375C27.0809 16.541 26.1316 16.5481 25.1824 16.5586V19.4027C26.1316 19.4133 27.0879 19.4203 28.0371 19.4309C28.0477 20.3801 28.0477 21.3328 28.0547 22.282H30.8988C30.9023 21.3328 30.9094 20.3801 30.9164 19.4238C31.8727 19.4133 32.8219 19.4098 33.7711 19.3992V16.5551C32.8254 16.5481 31.8691 16.5481 30.9199 16.5375ZM12.2871 16.5516C12.2836 17.6871 12.2871 18.8262 12.2906 19.9617C14.1961 20.025 16.1051 19.9969 18.0105 20.025C17.1703 24.2543 11.4223 25.6254 8.38125 22.8621C5.25234 20.4399 5.4 15.1277 8.65195 12.8777C10.9266 11.0637 14.1574 11.5102 16.432 13.0816C17.325 12.2555 18.1617 11.3695 18.9668 10.4555C17.0754 8.94727 14.7551 7.87149 12.2871 7.98399C7.1332 7.81173 2.39765 12.3258 2.31328 17.4832C1.98281 21.6984 4.75312 25.8293 8.6625 27.3199C12.5578 28.8211 17.5535 27.7981 20.0426 24.2965C21.6844 22.0852 22.0395 19.2375 21.8461 16.5621C18.6574 16.5375 15.4723 16.541 12.2871 16.5516Z" fill="white"/>
</svg>
