<svg width="30" height="30" viewBox="0 0 30 30" fill="none" xmlns="http://www.w3.org/2000/svg">
<circle cx="15" cy="15" r="15" fill="#FBB13C" fill-opacity="0.1"/>
<path fill-rule="evenodd" clip-rule="evenodd" d="M10.0164 11.9106C9.75 12.5538 9.75 13.3692 9.75 15C9.75 16.6308 9.75 17.4462 10.0164 18.0894C10.3717 18.947 11.053 19.6283 11.9106 19.9836C12.5538 20.25 13.3692 20.25 15 20.25H16.75C18.3999 20.25 19.2249 20.25 19.7374 19.7374C20.25 19.2249 20.25 18.3999 20.25 16.75V15C20.25 13.3692 20.25 12.5538 19.9836 11.9106C19.6283 11.053 18.947 10.3717 18.0894 10.0164C17.4462 9.75 16.6308 9.75 15 9.75C13.3692 9.75 12.5538 9.75 11.9106 10.0164C11.053 10.3717 10.3717 11.053 10.0164 11.9106ZM17.25 13.8331C17.25 13.557 17.0261 13.3331 16.75 13.3331H13.25C12.9739 13.3331 12.75 13.557 12.75 13.8331C12.75 14.1093 12.9739 14.3331 13.25 14.3331H16.75C17.0261 14.3331 17.25 14.1093 17.25 13.8331ZM17.25 16.1665C17.25 15.8903 17.0261 15.6665 16.75 15.6665H15C14.7239 15.6665 14.5 15.8903 14.5 16.1665C14.5 16.4426 14.7239 16.6665 15 16.6665H16.75C17.0261 16.6665 17.25 16.4426 17.25 16.1665Z" fill="#FBB13C"/>
</svg>
