<svg width="40" height="40" viewBox="0 0 40 40" fill="none" xmlns="http://www.w3.org/2000/svg">
<rect width="40" height="40" rx="12" fill="#6E7831"/>
<path d="M17 30H23C28 30 30 28 30 23V17C30 12 28 10 23 10H17C12 10 10 12 10 17V23C10 28 12 30 17 30Z" stroke="white" stroke-width="1.5" stroke-linecap="round" stroke-linejoin="round"/>
<path d="M17 18C18.1046 18 19 17.1046 19 16C19 14.8954 18.1046 14 17 14C15.8954 14 15 14.8954 15 16C15 17.1046 15.8954 18 17 18Z" stroke="white" stroke-width="1.5" stroke-linecap="round" stroke-linejoin="round"/>
<path d="M10.67 26.9501L15.6 23.6401C16.39 23.1101 17.53 23.1701 18.24 23.7801L18.57 24.0701C19.35 24.7401 20.61 24.7401 21.39 24.0701L25.55 20.5001C26.33 19.8301 27.59 19.8301 28.37 20.5001L30 21.9001" stroke="white" stroke-width="1.5" stroke-linecap="round" stroke-linejoin="round"/>
</svg>
