<svg width="14" height="14" viewBox="0 0 14 14" fill="none" xmlns="http://www.w3.org/2000/svg">
<path d="M1.75 5.75C1.75 3.86438 1.75 2.92157 2.33579 2.33579C2.92157 1.75 3.86438 1.75 5.75 1.75H8.25C10.1356 1.75 11.0784 1.75 11.6642 2.33579C12.25 2.92157 12.25 3.86438 12.25 5.75V8.25C12.25 10.1356 12.25 11.0784 11.6642 11.6642C11.0784 12.25 10.1356 12.25 8.25 12.25H5.75C3.86438 12.25 2.92157 12.25 2.33579 11.6642C1.75 11.0784 1.75 10.1356 1.75 8.25V5.75Z" stroke="#A77127"/>
<path fill-rule="evenodd" clip-rule="evenodd" d="M10.2491 7.46722C9.38034 7.10874 8.34365 7.28251 7.63764 7.98852C7.41301 8.21315 7.03253 8.13988 6.90739 7.84788L6.87624 7.77519L6.87075 7.7624C6.32791 6.50454 4.93308 5.97868 3.75162 6.38999C3.75051 6.5631 3.75 6.76454 3.75 6.99993C3.75 7.18667 3.75032 7.35204 3.75101 7.49885C4.50694 6.9981 5.5744 7.28227 5.9526 8.15863L5.95709 8.16911L5.98825 8.2418C6.39207 9.18406 7.61986 9.42051 8.34475 8.69562C8.85634 8.18403 9.66579 8.15181 10.2149 8.59897C10.2362 8.42874 10.2463 8.13538 10.2491 7.46722Z" fill="#A77127"/>
<circle cx="9.625" cy="4.375" r="0.875" fill="#A77127"/>
</svg>
