<svg enable-background="new 0 0 512 512" viewBox="0 0 512 512" xmlns="http://www.w3.org/2000/svg"><circle cx="256" cy="256" fill="#eeedf2" r="215.6"/><path d="m442.9 329.2c0 8.6-1.6 16.8-4.4 24.5-1.6 4.4-3.6 8.7-6.1 12.7-2.1 3.4-4 6.8-5.9 10.4l-45.3 87.6c-4.7 9.1-17.8 9.1-22.5 0l-45.3-87.6c-1.8-3.5-3.8-7-5.9-10.4-2.4-4-4.4-8.2-6.1-12.7-2.8-7.8-4.4-16.1-4.4-24.9 0-40.4 32.9-73.2 73.5-72.8 40.2.4 72.6 33.3 72.4 73.2z" fill="#d3d5e7"/><path d="m381.5 257.9c-.1 12.9-2.4 25.3-6.5 36.8-2.4 6.7-5.5 13-9.1 19-3.1 5.1-6.1 10.3-8.8 15.6l-68.1 131.6c-7.1 13.7-26.7 13.7-33.8 0l-68.1-131.5c-2.7-5.3-5.7-10.5-8.8-15.6-3.6-6-6.7-12.4-9.1-19-4.2-11.7-6.5-24.2-6.5-37.3 0-60.7 49.5-109.9 110.4-109.4 60 .3 108.7 49.8 108.4 109.8z" fill="#d3d5e7"/><path d="m226.8 366.5c0 6.3-1.2 12.4-3.2 18-1.2 3.3-2.7 6.4-4.5 9.3-1.5 2.5-3 5-4.3 7.6l-33.4 64.5c-3.5 6.7-13.1 6.7-16.6 0l-33.4-64.5c-1.3-2.6-2.8-5.1-4.3-7.6-1.8-2.9-3.3-6.1-4.5-9.3-2.1-5.7-3.2-11.9-3.2-18.3 0-29.8 24.3-53.9 54.2-53.7 29.4.3 53.3 24.6 53.2 54z" fill="#d3d5e7"/><g stroke-linecap="round" stroke-miterlimit="10"><path d="m365.4 257.9c-.1 12.9-2.4 25.3-6.5 36.8-2.4 6.7-5.5 13-9.1 19-3.1 5.1-6.1 10.3-8.8 15.6l-68.1 131.5c-7.1 13.7-26.7 13.7-33.8 0l-68.1-131.5c-2.7-5.3-5.7-10.5-8.8-15.6-3.6-6-6.7-12.4-9.1-19-4.2-11.7-6.5-24.2-6.5-37.3 0-60.7 49.5-109.9 110.4-109.4 60 .4 108.7 49.9 108.4 109.9z" fill="#fff" stroke="#1e247e" stroke-width="6"/><circle cx="256" cy="264.7" fill="#da867d" r="52" stroke="#1e247e" stroke-width="6"/><path d="m304.4 176.3c8.6 3.7 16.1 9.6 21.8 17" fill="none" stroke="#1e247e" stroke-width="3"/><path d="m232.5 350.6 6.6 5" fill="none" stroke="#1e247e" stroke-width="2.5"/><path d="m232.5 344.3 13.1 10.1" fill="none" stroke="#1e247e" stroke-width="2.5"/><path d="m242 345.2 3.6 2.8" fill="none" stroke="#1e247e" stroke-width="2.5"/><path d="m210.7 366.5c0 6.3-1.2 12.4-3.2 18-1.2 3.3-2.7 6.4-4.5 9.3-1.5 2.5-3 5-4.3 7.6l-33.4 64.5c-3.5 6.7-13.1 6.7-16.6 0l-33.4-64.5c-1.3-2.6-2.8-5.1-4.3-7.6-1.8-2.9-3.3-6.1-4.5-9.3-2.1-5.7-3.2-11.9-3.2-18.3 0-29.8 24.3-53.9 54.2-53.7 29.4.3 53.3 24.5 53.2 54z" fill="#fff" stroke="#1e247e" stroke-width="6"/><circle cx="157" cy="369.8" fill="#f0c330" r="25.5" stroke="#1e247e" stroke-width="6"/><path d="m177.1 329.5c4.3 1.9 8.1 4.8 10.9 8.5" fill="none" stroke="#1e247e" stroke-width="3"/><path d="m147.2 417.9 5.3 4" fill="none" stroke="#1e247e" stroke-width="2"/><path d="m147.2 412.9 10.5 8" fill="none" stroke="#1e247e" stroke-width="2"/><path d="m154.8 413.6 2.9 2.2" fill="none" stroke="#1e247e" stroke-width="2"/><path d="m426.8 329.2c0 8.6-1.6 16.8-4.4 24.5-1.6 4.4-3.6 8.7-6.1 12.7-2.1 3.4-4 6.8-5.9 10.4l-45.3 87.6c-4.7 9.1-17.8 9.1-22.5 0l-45.3-87.6c-1.8-3.5-3.8-7-5.9-10.4-2.4-4-4.4-8.2-6.1-12.7-2.8-7.8-4.4-16.1-4.4-24.9 0-40.4 32.9-73.2 73.5-72.8 40.2.3 72.6 33.2 72.4 73.2z" fill="#fff" stroke="#1e247e" stroke-width="6"/><circle cx="354" cy="333.7" fill="#dbe7fe" r="34.6" stroke="#1e247e" stroke-width="6"/><path d="m382.4 274.8c6.3 3.2 11.8 7.5 16.4 12.7" fill="none" stroke="#1e247e" stroke-width="3"/><path d="m345.3 404.8 6.6 5" fill="none" stroke="#1e247e" stroke-width="2.5"/><path d="m345.3 398.5 13.1 10" fill="none" stroke="#1e247e" stroke-width="2.5"/><path d="m354.8 399.3 3.6 2.8" fill="none" stroke="#1e247e" stroke-width="2.5"/><path d="m440.8 471.1h30.8" fill="none" stroke="#1e247e" stroke-width="6"/><path d="m316.6 471.1h110.2" fill="none" stroke="#1e247e" stroke-width="6"/><path d="m116.8 471.1h179" fill="none" stroke="#1e247e" stroke-width="6"/><path d="m42.8 471.1h60.5" fill="none" stroke="#1e247e" stroke-width="6"/><path d="m91.5 307.2-5.5-7.6-8.1-4.1c-.2-.1-.2-.4 0-.5l15-5.6c.2-.1.4.1.3.3l-1.3 17.3c0 .3-.3.4-.4.2z" fill="#1e247e" stroke="#1e247e" stroke-width="4"/><path d="m117 273.5-5.5-7.6-8.1-4.1c-.2-.1-.2-.4 0-.5l15-5.6c.2-.1.4.1.3.3l-1.3 17.3c0 .3-.3.4-.4.2z" fill="#1e247e" stroke="#1e247e" stroke-width="4"/><path d="m343.4 130.8-8.2 2.9" fill="none" stroke="#fff" stroke-width="7"/><path d="m333.6 119.3-6.2 7.6" fill="none" stroke="#fff" stroke-width="7"/><path d="m318.4 121.4.9-9.2" fill="none" stroke="#fff" stroke-width="7"/></g></svg>