<svg width="10" height="10" viewBox="0 0 10 10" fill="none" xmlns="http://www.w3.org/2000/svg">
<path d="M7.70866 8.95833L5.20866 2.70833M8.95866 1.875L1.04199 3.54167" stroke="#6E7831"/>
<path d="M1.04199 4.24167C1.04199 3.12157 1.04199 2.56151 1.25998 2.13369C1.45173 1.75737 1.75769 1.45141 2.13401 1.25966C2.56183 1.04167 3.12189 1.04167 4.24199 1.04167H5.75866C6.87876 1.04167 7.43882 1.04167 7.86664 1.25966C8.24296 1.45141 8.54892 1.75737 8.74067 2.13369C8.95866 2.56151 8.95866 3.12157 8.95866 4.24167V5.75834C8.95866 6.87844 8.95866 7.4385 8.74067 7.86632C8.54892 8.24264 8.24296 8.5486 7.86664 8.74035C7.43882 8.95834 6.87876 8.95834 5.75866 8.95834H4.24199C3.12189 8.95834 2.56183 8.95834 2.13401 8.74035C1.75769 8.5486 1.45173 8.24264 1.25998 7.86632C1.04199 7.4385 1.04199 6.87844 1.04199 5.75834V4.24167Z" stroke="#6E7831" stroke-width="0.5" stroke-linecap="round"/>
<path d="M5.20866 6.26226C5.20866 7.00667 4.5978 7.56777 4.16678 7.87102C3.91462 8.04843 3.58603 8.04843 3.33387 7.87102C2.90285 7.56777 2.29199 7.00667 2.29199 6.26226C2.29199 5.37991 2.9986 4.79167 3.75033 4.79167C4.5281 4.79167 5.20866 5.37991 5.20866 6.26226Z" stroke="#6E7831" stroke-width="0.5"/>
<circle cx="3.74967" cy="6.24999" r="0.416667" fill="#6E7831"/>
</svg>
