<svg width="21" height="21" viewBox="0 0 21 21" fill="none" xmlns="http://www.w3.org/2000/svg">
<path d="M16.1516 12.596L18.4269 14.8713C18.7434 15.1878 18.7434 15.701 18.4269 16.0176C16.7156 17.7289 14.0063 17.9214 12.0702 16.4693L10.9619 15.6381C9.21838 14.3304 7.66955 12.7816 6.3619 11.0381L5.53067 9.92979C4.07858 7.99367 4.27112 5.28443 5.98243 3.57313C6.29896 3.2566 6.81215 3.2566 7.12868 3.57313L9.404 5.84845C9.79453 6.23897 9.79453 6.87214 9.404 7.26266L8.57488 8.09178C8.43063 8.23603 8.39487 8.45641 8.4861 8.63887C9.54091 10.7485 11.2515 12.4591 13.3611 13.5139C13.5436 13.6051 13.764 13.5694 13.9082 13.4251L14.7373 12.596C15.1279 12.2055 15.761 12.2055 16.1516 12.596Z" stroke="#6B7820"/>
</svg>
