<svg width="21" height="22" viewBox="0 0 21 22" fill="none" xmlns="http://www.w3.org/2000/svg">
<path fill-rule="evenodd" clip-rule="evenodd" d="M6.53991 18.1172C7.91708 17.357 12.25 14.606 12.25 10.0833C12.25 6.53951 9.50774 3.66667 6.125 3.66667C2.74226 3.66667 0 6.53951 0 10.0833C0 14.606 4.33292 17.357 5.71009 18.1172C5.97025 18.2608 6.27975 18.2608 6.53991 18.1172ZM6.125 12.8333C7.57475 12.8333 8.75 11.6021 8.75 10.0833C8.75 8.56456 7.57475 7.33334 6.125 7.33334C4.67525 7.33334 3.5 8.56456 3.5 10.0833C3.5 11.6021 4.67525 12.8333 6.125 12.8333Z" fill="#A77127"/>
</svg>
