<svg width="24" height="24" viewBox="0 0 24 24" fill="none" xmlns="http://www.w3.org/2000/svg">
<path d="M16.7097 2.07422C20.078 2.07422 21.9999 3.97632 21.9999 7.35453V16.6075C21.9999 19.9658 20.0879 21.8878 16.7196 21.8878H7.46671C4.0885 21.8878 2.1864 19.9658 2.1864 16.6075V7.35453C2.1864 3.97632 4.0885 2.07422 7.46671 2.07422H16.7097ZM12.0833 7.53285C11.6276 7.53285 11.261 7.8994 11.261 8.35511V11.1488H8.45739C8.23944 11.1488 8.0314 11.238 7.87289 11.3866C7.72429 11.5451 7.63513 11.7521 7.63513 11.9711C7.63513 12.4268 8.00168 12.7933 8.45739 12.8033H11.261V15.6069C11.261 16.0626 11.6276 16.4291 12.0833 16.4291C12.539 16.4291 12.9055 16.0626 12.9055 15.6069V12.8033H15.719C16.1748 12.7933 16.5413 12.4268 16.5413 11.9711C16.5413 11.5154 16.1748 11.1488 15.719 11.1488H12.9055V8.35511C12.9055 7.8994 12.539 7.53285 12.0833 7.53285Z" fill="#6E7831"/>
</svg>
