<svg width="40" height="40" viewBox="0 0 40 40" fill="none" xmlns="http://www.w3.org/2000/svg">
<rect opacity="0.1" width="40" height="40" rx="12" fill="#6E7831"/>
<path d="M25 17C25 20.87 21.64 24 17.5 24L16.57 25.12L16.02 25.78C15.55 26.34 14.65 26.22 14.34 25.55L13 22.6C11.18 21.32 10 19.29 10 17C10 13.13 13.36 10 17.5 10C20.52 10 23.13 11.67 24.3 14.07C24.75 14.96 25 15.95 25 17Z" stroke="#6E7831" stroke-width="1.5" stroke-linecap="round" stroke-linejoin="round"/>
<path d="M30 20.86C30 23.15 28.82 25.1801 27 26.4601L25.66 29.41C25.35 30.08 24.45 30.2101 23.98 29.6401L22.5 27.86C20.08 27.86 17.92 26.7901 16.57 25.1201L17.5 24.0001C21.64 24.0001 25 20.8701 25 17.0001C25 15.9501 24.75 14.9601 24.3 14.0701C27.57 14.8201 30 17.58 30 20.86Z" stroke="#6E7831" stroke-width="1.5" stroke-linecap="round" stroke-linejoin="round"/>
<path d="M15 17H20" stroke="#6E7831" stroke-width="1.5" stroke-linecap="round" stroke-linejoin="round"/>
</svg>
