<svg width="30" height="30" viewBox="0 0 30 30" fill="none" xmlns="http://www.w3.org/2000/svg">
<circle cx="15" cy="15" r="15" fill="#7A7FF7" fill-opacity="0.1"/>
<path d="M20.5 18L20.8536 18.3536L21.2071 18L20.8536 17.6464L20.5 18ZM11 16.75C11 16.4739 10.7761 16.25 10.5 16.25C10.2239 16.25 10 16.4739 10 16.75L11 16.75ZM18.3536 20.8536L20.8536 18.3536L20.1464 17.6464L17.6464 20.1464L18.3536 20.8536ZM20.8536 17.6464L18.3536 15.1464L17.6464 15.8536L20.1464 18.3536L20.8536 17.6464ZM20.5 17.5L11.75 17.5L11.75 18.5L20.5 18.5L20.5 17.5ZM11.75 17.5C11.3358 17.5 11 17.1642 11 16.75L10 16.75C10 17.7165 10.7835 18.5 11.75 18.5L11.75 17.5Z" fill="#7A7FF7"/>
<path d="M10.5 13L10.1464 13.3536L9.79289 13L10.1464 12.6464L10.5 13ZM19.875 13L19.875 12.5L19.875 13ZM21.625 14.25C21.625 14.5261 21.4011 14.75 21.125 14.75C20.8489 14.75 20.625 14.5261 20.625 14.25L21.625 14.25ZM12.6464 15.8536L10.1464 13.3536L10.8536 12.6464L13.3536 15.1464L12.6464 15.8536ZM10.1464 12.6464L12.6464 10.1464L13.3536 10.8536L10.8536 13.3536L10.1464 12.6464ZM10.5 12.5L19.875 12.5L19.875 13.5L10.5 13.5L10.5 12.5ZM19.875 12.5C20.8415 12.5 21.625 13.2835 21.625 14.25L20.625 14.25C20.625 13.8358 20.2892 13.5 19.875 13.5L19.875 12.5Z" fill="#7A7FF7"/>
</svg>
