<svg width="30" height="30" viewBox="0 0 30 30" fill="none" xmlns="http://www.w3.org/2000/svg">
<circle cx="15" cy="15" r="15" fill="#EEF6FF"/>
<path d="M20.375 10.625V10.125H20.875V10.625H20.375ZM15.3119 16.3952C15.1166 16.5905 14.8 16.5905 14.6048 16.3952C14.4095 16.2 14.4095 15.8834 14.6048 15.6881L15.3119 16.3952ZM19.875 14.9583V10.625H20.875V14.9583H19.875ZM20.375 11.125H16.0417V10.125H20.375V11.125ZM20.7286 10.9786L15.3119 16.3952L14.6048 15.6881L20.0214 10.2714L20.7286 10.9786Z" fill="#1D4E89"/>
<path d="M19.833 17.125V17.125C19.833 18.6208 18.6204 19.8333 17.1247 19.8333H15.4997C14.2581 19.8333 13.6374 19.8333 13.1403 19.6524C12.307 19.3491 11.6506 18.6927 11.3473 17.8594C11.1663 17.3623 11.1663 16.7415 11.1663 15.5V13.875C11.1663 12.3792 12.3789 11.1667 13.8747 11.1667V11.1667" stroke="#1D4E89" stroke-linecap="round"/>
</svg>
