<svg width="335" height="106" viewBox="0 0 335 106" fill="none" xmlns="http://www.w3.org/2000/svg">
<rect opacity="0.6" x="0.5" y="0.5" width="334" height="105" rx="11.5" stroke="#9BAFB8" stroke-dasharray="5 5"/>
<g opacity="0.6">
<path d="M170.35 15C171.32 15.01 172.11 15.5094 172.57 16.4084C172.689 16.6457 172.854 16.9922 173.028 17.3577L173.237 17.7996L173.34 18.0166L173.44 18.2364C173.48 18.3063 173.55 18.3563 173.64 18.3563C176.04 18.3563 178 20.3141 178 22.7114V28.6448C178 31.0422 176.04 33 173.64 33H162.36C159.95 33 158 31.0422 158 28.6448V22.7114C158 20.3141 159.95 18.3563 162.36 18.3563C162.44 18.3563 162.52 18.3163 162.55 18.2364L162.61 18.1165C162.89 17.5272 163.23 16.808 163.43 16.4084C163.89 15.5094 164.67 15.01 165.64 15H170.35ZM168 21.4029C166.95 21.4029 165.96 21.8124 165.21 22.5616C164.47 23.3108 164.06 24.2897 164.07 25.3285C164.07 26.3774 164.48 27.3563 165.22 28.1054C165.97 28.8446 166.95 29.2542 168 29.2542C169.08 29.2542 170.06 28.8147 170.77 28.1054C171.48 27.3962 171.92 26.4173 171.93 25.3285C171.93 24.2897 171.52 23.3008 170.78 22.5516C170.04 21.8124 169.05 21.4029 168 21.4029ZM168 22.9012C168.65 22.9012 169.26 23.1509 169.72 23.6104C170.18 24.0699 170.43 24.6792 170.43 25.3285C170.42 26.667 169.34 27.7558 168 27.7558C167.35 27.7558 166.74 27.5061 166.28 27.0466C165.82 26.5871 165.57 25.9778 165.57 25.3285V25.3185C165.56 24.6892 165.81 24.0799 166.27 23.6204C166.74 23.1509 167.35 22.9012 168 22.9012ZM173.61 21.1632C173.11 21.1632 172.71 21.5727 172.71 22.0721C172.71 22.5716 173.11 22.9711 173.61 22.9711C174.11 22.9711 174.52 22.5716 174.52 22.0721C174.52 21.5727 174.11 21.1632 173.61 21.1632Z" fill="#6E7831"/>
</g>
<path d="M138.19 44.2727H139.247V50.0511C139.247 50.6477 139.107 51.1804 138.825 51.6491C138.547 52.1151 138.153 52.483 137.645 52.7528C137.136 53.0199 136.54 53.1534 135.855 53.1534C135.17 53.1534 134.574 53.0199 134.065 52.7528C133.557 52.483 133.162 52.1151 132.881 51.6491C132.602 51.1804 132.463 50.6477 132.463 50.0511V44.2727H133.52V49.9659C133.52 50.392 133.614 50.7713 133.801 51.1037C133.989 51.4332 134.256 51.6932 134.602 51.8835C134.952 52.071 135.369 52.1648 135.855 52.1648C136.341 52.1648 136.759 52.071 137.108 51.8835C137.457 51.6932 137.724 51.4332 137.909 51.1037C138.097 50.7713 138.19 50.392 138.19 49.9659V44.2727ZM141.221 55.4545V46.4545H142.193V47.4943H142.312C142.386 47.3807 142.488 47.2358 142.619 47.0597C142.752 46.8807 142.943 46.7216 143.19 46.5824C143.44 46.4403 143.778 46.3693 144.204 46.3693C144.755 46.3693 145.241 46.5071 145.662 46.7827C146.082 47.0582 146.41 47.4489 146.646 47.9545C146.882 48.4602 147 49.0568 147 49.7443C147 50.4375 146.882 51.0384 146.646 51.5469C146.41 52.0526 146.083 52.4446 145.666 52.723C145.248 52.9986 144.767 53.1364 144.221 53.1364C143.801 53.1364 143.464 53.0668 143.211 52.9276C142.958 52.7855 142.764 52.625 142.627 52.446C142.491 52.2642 142.386 52.1136 142.312 51.9943H142.227V55.4545H141.221ZM142.21 49.7273C142.21 50.2216 142.282 50.6577 142.427 51.0355C142.572 51.4105 142.784 51.7045 143.062 51.9176C143.341 52.1278 143.681 52.233 144.085 52.233C144.505 52.233 144.856 52.1222 145.137 51.9006C145.422 51.6761 145.635 51.375 145.777 50.9972C145.922 50.6165 145.994 50.1932 145.994 49.7273C145.994 49.267 145.923 48.8523 145.781 48.483C145.642 48.1108 145.43 47.8168 145.146 47.6009C144.865 47.3821 144.511 47.2727 144.085 47.2727C143.676 47.2727 143.332 47.3764 143.054 47.5838C142.775 47.7884 142.565 48.0753 142.423 48.4446C142.281 48.8111 142.21 49.2386 142.21 49.7273ZM149.539 44.2727V53H148.534V44.2727H149.539ZM154.04 53.1364C153.45 53.1364 152.931 52.9957 152.485 52.7145C152.042 52.4332 151.695 52.0398 151.445 51.5341C151.198 51.0284 151.075 50.4375 151.075 49.7614C151.075 49.0795 151.198 48.4844 151.445 47.9759C151.695 47.4673 152.042 47.0724 152.485 46.7912C152.931 46.5099 153.45 46.3693 154.04 46.3693C154.631 46.3693 155.148 46.5099 155.592 46.7912C156.038 47.0724 156.384 47.4673 156.631 47.9759C156.881 48.4844 157.006 49.0795 157.006 49.7614C157.006 50.4375 156.881 51.0284 156.631 51.5341C156.384 52.0398 156.038 52.4332 155.592 52.7145C155.148 52.9957 154.631 53.1364 154.04 53.1364ZM154.04 52.233C154.489 52.233 154.859 52.1179 155.148 51.8878C155.438 51.6577 155.653 51.3551 155.792 50.9801C155.931 50.6051 156.001 50.1989 156.001 49.7614C156.001 49.3239 155.931 48.9162 155.792 48.5384C155.653 48.1605 155.438 47.8551 155.148 47.6222C154.859 47.3892 154.489 47.2727 154.04 47.2727C153.592 47.2727 153.222 47.3892 152.933 47.6222C152.643 47.8551 152.428 48.1605 152.289 48.5384C152.15 48.9162 152.08 49.3239 152.08 49.7614C152.08 50.1989 152.15 50.6051 152.289 50.9801C152.428 51.3551 152.643 51.6577 152.933 51.8878C153.222 52.1179 153.592 52.233 154.04 52.233ZM160.468 53.1534C160.053 53.1534 159.676 53.0753 159.338 52.919C159 52.7599 158.732 52.5312 158.533 52.233C158.334 51.9318 158.235 51.5682 158.235 51.142C158.235 50.767 158.309 50.4631 158.456 50.2301C158.604 49.9943 158.801 49.8097 159.049 49.6761C159.296 49.5426 159.569 49.4432 159.867 49.3778C160.168 49.3097 160.471 49.2557 160.775 49.2159C161.172 49.1648 161.495 49.1264 161.742 49.1009C161.992 49.0724 162.174 49.0256 162.287 48.9602C162.404 48.8949 162.462 48.7812 162.462 48.6193V48.5852C162.462 48.1648 162.347 47.8381 162.117 47.6051C161.89 47.3722 161.544 47.2557 161.081 47.2557C160.601 47.2557 160.225 47.3608 159.952 47.571C159.679 47.7812 159.488 48.0057 159.377 48.2443L158.422 47.9034C158.593 47.5057 158.82 47.196 159.104 46.9744C159.391 46.75 159.703 46.5937 160.042 46.5057C160.382 46.4148 160.718 46.3693 161.047 46.3693C161.257 46.3693 161.499 46.3949 161.772 46.446C162.047 46.4943 162.313 46.5952 162.569 46.7486C162.827 46.902 163.042 47.1335 163.212 47.4432C163.382 47.7528 163.468 48.1676 163.468 48.6875V53H162.462V52.1136H162.411C162.343 52.2557 162.229 52.4077 162.07 52.5696C161.911 52.7315 161.699 52.8693 161.435 52.983C161.171 53.0966 160.848 53.1534 160.468 53.1534ZM160.621 52.25C161.019 52.25 161.354 52.1719 161.627 52.0156C161.902 51.8594 162.11 51.6577 162.249 51.4105C162.391 51.1634 162.462 50.9034 162.462 50.6307V49.7102C162.419 49.7614 162.326 49.8082 162.181 49.8509C162.039 49.8906 161.874 49.9261 161.686 49.9574C161.502 49.9858 161.321 50.0114 161.145 50.0341C160.972 50.054 160.831 50.071 160.723 50.0852C160.462 50.1193 160.218 50.1747 159.99 50.2514C159.766 50.3253 159.584 50.4375 159.445 50.5881C159.309 50.7358 159.24 50.9375 159.24 51.1932C159.24 51.5426 159.37 51.8068 159.628 51.9858C159.89 52.1619 160.221 52.25 160.621 52.25ZM167.775 53.1364C167.229 53.1364 166.748 52.9986 166.33 52.723C165.913 52.4446 165.586 52.0526 165.35 51.5469C165.114 51.0384 164.996 50.4375 164.996 49.7443C164.996 49.0568 165.114 48.4602 165.35 47.9545C165.586 47.4489 165.914 47.0582 166.335 46.7827C166.755 46.5071 167.241 46.3693 167.792 46.3693C168.218 46.3693 168.555 46.4403 168.802 46.5824C169.052 46.7216 169.242 46.8807 169.373 47.0597C169.506 47.2358 169.61 47.3807 169.684 47.4943H169.769V44.2727H170.775V53H169.803V51.9943H169.684C169.61 52.1136 169.505 52.2642 169.369 52.446C169.232 52.625 169.038 52.7855 168.785 52.9276C168.532 53.0668 168.195 53.1364 167.775 53.1364ZM167.911 52.233C168.315 52.233 168.656 52.1278 168.934 51.9176C169.212 51.7045 169.424 51.4105 169.569 51.0355C169.714 50.6577 169.786 50.2216 169.786 49.7273C169.786 49.2386 169.715 48.8111 169.573 48.4446C169.431 48.0753 169.221 47.7884 168.942 47.5838C168.664 47.3764 168.32 47.2727 167.911 47.2727C167.485 47.2727 167.13 47.3821 166.846 47.6009C166.565 47.8168 166.353 48.1108 166.211 48.483C166.072 48.8523 166.002 49.267 166.002 49.7273C166.002 50.1932 166.073 50.6165 166.215 50.9972C166.36 51.375 166.573 51.6761 166.854 51.9006C167.138 52.1222 167.491 52.233 167.911 52.233ZM176.268 53V44.2727H177.325V52.0625H181.381V53H176.268ZM185.54 53.1364C184.95 53.1364 184.431 52.9957 183.985 52.7145C183.542 52.4332 183.195 52.0398 182.945 51.5341C182.698 51.0284 182.575 50.4375 182.575 49.7614C182.575 49.0795 182.698 48.4844 182.945 47.9759C183.195 47.4673 183.542 47.0724 183.985 46.7912C184.431 46.5099 184.95 46.3693 185.54 46.3693C186.131 46.3693 186.648 46.5099 187.092 46.7912C187.538 47.0724 187.884 47.4673 188.131 47.9759C188.381 48.4844 188.506 49.0795 188.506 49.7614C188.506 50.4375 188.381 51.0284 188.131 51.5341C187.884 52.0398 187.538 52.4332 187.092 52.7145C186.648 52.9957 186.131 53.1364 185.54 53.1364ZM185.54 52.233C185.989 52.233 186.359 52.1179 186.648 51.8878C186.938 51.6577 187.153 51.3551 187.292 50.9801C187.431 50.6051 187.501 50.1989 187.501 49.7614C187.501 49.3239 187.431 48.9162 187.292 48.5384C187.153 48.1605 186.938 47.8551 186.648 47.6222C186.359 47.3892 185.989 47.2727 185.54 47.2727C185.092 47.2727 184.722 47.3892 184.433 47.6222C184.143 47.8551 183.928 48.1605 183.789 48.5384C183.65 48.9162 183.58 49.3239 183.58 49.7614C183.58 50.1989 183.65 50.6051 183.789 50.9801C183.928 51.3551 184.143 51.6577 184.433 51.8878C184.722 52.1179 185.092 52.233 185.54 52.233ZM192.684 55.5909C192.198 55.5909 191.78 55.5284 191.431 55.4034C191.081 55.2812 190.79 55.1193 190.557 54.9176C190.327 54.7188 190.144 54.5057 190.007 54.2784L190.809 53.7159C190.9 53.8352 191.015 53.9716 191.154 54.125C191.293 54.2812 191.483 54.4162 191.725 54.5298C191.969 54.6463 192.289 54.7045 192.684 54.7045C193.212 54.7045 193.648 54.5767 193.992 54.321C194.336 54.0653 194.507 53.6648 194.507 53.1193V51.7898H194.422C194.348 51.9091 194.243 52.0568 194.107 52.233C193.973 52.4062 193.78 52.5611 193.527 52.6974C193.277 52.831 192.939 52.8977 192.513 52.8977C191.985 52.8977 191.51 52.7727 191.09 52.5227C190.672 52.2727 190.341 51.9091 190.097 51.4318C189.855 50.9545 189.735 50.375 189.735 49.6932C189.735 49.0227 189.853 48.4389 190.088 47.9418C190.324 47.4418 190.652 47.0554 191.073 46.7827C191.493 46.5071 191.979 46.3693 192.53 46.3693C192.956 46.3693 193.294 46.4403 193.544 46.5824C193.797 46.7216 193.99 46.8807 194.124 47.0597C194.26 47.2358 194.365 47.3807 194.439 47.4943H194.542V46.4545H195.513V53.1875C195.513 53.75 195.385 54.2074 195.13 54.5597C194.877 54.9148 194.536 55.1747 194.107 55.3395C193.681 55.5071 193.206 55.5909 192.684 55.5909ZM192.65 51.9943C193.053 51.9943 193.394 51.902 193.672 51.7173C193.951 51.5327 194.162 51.267 194.307 50.9205C194.452 50.5739 194.525 50.1591 194.525 49.6761C194.525 49.2045 194.453 48.7884 194.311 48.4276C194.169 48.0668 193.959 47.7841 193.681 47.5795C193.402 47.375 193.059 47.2727 192.65 47.2727C192.223 47.2727 191.868 47.3807 191.584 47.5966C191.303 47.8125 191.091 48.1023 190.949 48.4659C190.81 48.8295 190.74 49.233 190.74 49.6761C190.74 50.1307 190.811 50.5327 190.953 50.8821C191.098 51.2287 191.311 51.5014 191.593 51.7003C191.877 51.8963 192.229 51.9943 192.65 51.9943ZM200.013 53.1364C199.422 53.1364 198.904 52.9957 198.458 52.7145C198.015 52.4332 197.668 52.0398 197.418 51.5341C197.171 51.0284 197.047 50.4375 197.047 49.7614C197.047 49.0795 197.171 48.4844 197.418 47.9759C197.668 47.4673 198.015 47.0724 198.458 46.7912C198.904 46.5099 199.422 46.3693 200.013 46.3693C200.604 46.3693 201.121 46.5099 201.564 46.7912C202.01 47.0724 202.357 47.4673 202.604 47.9759C202.854 48.4844 202.979 49.0795 202.979 49.7614C202.979 50.4375 202.854 51.0284 202.604 51.5341C202.357 52.0398 202.01 52.4332 201.564 52.7145C201.121 52.9957 200.604 53.1364 200.013 53.1364ZM200.013 52.233C200.462 52.233 200.831 52.1179 201.121 51.8878C201.411 51.6577 201.625 51.3551 201.765 50.9801C201.904 50.6051 201.973 50.1989 201.973 49.7614C201.973 49.3239 201.904 48.9162 201.765 48.5384C201.625 48.1605 201.411 47.8551 201.121 47.6222C200.831 47.3892 200.462 47.2727 200.013 47.2727C199.564 47.2727 199.195 47.3892 198.905 47.6222C198.615 47.8551 198.401 48.1605 198.262 48.5384C198.123 48.9162 198.053 49.3239 198.053 49.7614C198.053 50.1989 198.123 50.6051 198.262 50.9801C198.401 51.3551 198.615 51.6577 198.905 51.8878C199.195 52.1179 199.564 52.233 200.013 52.233Z" fill="black"/>
<path opacity="0.4" d="M47.7899 75V67.7273H48.6705V74.2188H52.0512V75H47.7899ZM55.5171 75.1136C55.0247 75.1136 54.5927 74.9964 54.221 74.7621C53.8517 74.5277 53.5628 74.1998 53.3545 73.7784C53.1485 73.357 53.0455 72.8646 53.0455 72.3011C53.0455 71.733 53.1485 71.237 53.3545 70.8132C53.5628 70.3894 53.8517 70.0604 54.221 69.826C54.5927 69.5916 55.0247 69.4744 55.5171 69.4744C56.0096 69.4744 56.4404 69.5916 56.8097 69.826C57.1814 70.0604 57.4703 70.3894 57.6762 70.8132C57.8846 71.237 57.9887 71.733 57.9887 72.3011C57.9887 72.8646 57.8846 73.357 57.6762 73.7784C57.4703 74.1998 57.1814 74.5277 56.8097 74.7621C56.4404 74.9964 56.0096 75.1136 55.5171 75.1136ZM55.5171 74.3608C55.8912 74.3608 56.199 74.2649 56.4404 74.0732C56.6819 73.8814 56.8606 73.6293 56.9767 73.3168C57.0927 73.0043 57.1507 72.6657 57.1507 72.3011C57.1507 71.9366 57.0927 71.5968 56.9767 71.282C56.8606 70.9671 56.6819 70.7126 56.4404 70.5185C56.199 70.3243 55.8912 70.2273 55.5171 70.2273C55.1431 70.2273 54.8353 70.3243 54.5938 70.5185C54.3524 70.7126 54.1736 70.9671 54.0576 71.282C53.9416 71.5968 53.8836 71.9366 53.8836 72.3011C53.8836 72.6657 53.9416 73.0043 54.0576 73.3168C54.1736 73.6293 54.3524 73.8814 54.5938 74.0732C54.8353 74.2649 55.1431 74.3608 55.5171 74.3608ZM59.268 75V69.5455H60.0777V70.3693H60.1345C60.2339 70.0994 60.4139 69.8804 60.6743 69.7124C60.9347 69.5443 61.2282 69.4602 61.555 69.4602C61.6165 69.4602 61.6934 69.4614 61.7858 69.4638C61.8781 69.4661 61.9479 69.4697 61.9953 69.4744V70.3267C61.9669 70.3196 61.9018 70.3089 61.8 70.2947C61.7006 70.2782 61.5952 70.2699 61.4839 70.2699C61.2188 70.2699 60.982 70.3255 60.7737 70.4368C60.5677 70.5457 60.4044 70.6972 60.2836 70.8913C60.1653 71.0831 60.1061 71.3021 60.1061 71.5483V75H59.268ZM65.1096 75.1136C64.5841 75.1136 64.1307 74.9976 63.7496 74.7656C63.3708 74.5312 63.0784 74.2045 62.8724 73.7855C62.6688 73.3641 62.567 72.8741 62.567 72.3153C62.567 71.7566 62.6688 71.2642 62.8724 70.8381C63.0784 70.4096 63.3648 70.0758 63.7318 69.8366C64.1011 69.5952 64.532 69.4744 65.0244 69.4744C65.3085 69.4744 65.589 69.5218 65.866 69.6165C66.143 69.7112 66.3952 69.8651 66.6224 70.0781C66.8497 70.2888 67.0308 70.5682 67.1657 70.9162C67.3007 71.2642 67.3682 71.6927 67.3682 72.2017V72.5568H63.1636V71.8324H66.5159C66.5159 71.5246 66.4543 71.25 66.3312 71.0085C66.2105 70.767 66.0377 70.5765 65.8128 70.4368C65.5902 70.2971 65.3274 70.2273 65.0244 70.2273C64.6906 70.2273 64.4018 70.3101 64.1579 70.4759C63.9165 70.6392 63.7306 70.8523 63.6004 71.1151C63.4702 71.3778 63.4051 71.6596 63.4051 71.9602V72.4432C63.4051 72.8551 63.4761 73.2043 63.6182 73.4908C63.7626 73.7749 63.9626 73.9915 64.2183 74.1406C64.474 74.2874 64.7711 74.3608 65.1096 74.3608C65.3298 74.3608 65.5287 74.33 65.7062 74.2685C65.8862 74.2045 66.0412 74.1098 66.1714 73.9844C66.3016 73.8565 66.4023 73.6979 66.4733 73.5085L67.2829 73.7358C67.1977 74.0104 67.0545 74.2519 66.8532 74.4602C66.652 74.6662 66.4034 74.8272 66.1075 74.9432C65.8116 75.0568 65.479 75.1136 65.1096 75.1136ZM68.643 75V69.5455H69.4527V70.3977H69.5237C69.6373 70.1065 69.8208 69.8804 70.0741 69.7195C70.3274 69.5561 70.6317 69.4744 70.9868 69.4744C71.3466 69.4744 71.6461 69.5561 71.8852 69.7195C72.1267 69.8804 72.3149 70.1065 72.4498 70.3977H72.5067C72.6463 70.116 72.8559 69.8923 73.1352 69.7266C73.4146 69.5585 73.7496 69.4744 74.1402 69.4744C74.6279 69.4744 75.0268 69.6271 75.3369 69.9325C75.647 70.2356 75.8021 70.7079 75.8021 71.3494V75H74.964V71.3494C74.964 70.947 74.854 70.6593 74.6338 70.4865C74.4136 70.3137 74.1544 70.2273 73.8561 70.2273C73.4726 70.2273 73.1755 70.3433 72.9648 70.5753C72.7541 70.8049 72.6487 71.0961 72.6487 71.4489V75H71.7964V71.2642C71.7964 70.9541 71.6958 70.7043 71.4946 70.5149C71.2934 70.3232 71.0341 70.2273 70.7169 70.2273C70.4991 70.2273 70.2955 70.2853 70.1061 70.4013C69.9191 70.5173 69.7675 70.6783 69.6515 70.8842C69.5379 71.0878 69.4811 71.3234 69.4811 71.5909V75H68.643ZM80.1469 75V69.5455H80.985V75H80.1469ZM80.5731 68.6364C80.4097 68.6364 80.2689 68.5807 80.1505 68.4695C80.0345 68.3582 79.9765 68.2244 79.9765 68.0682C79.9765 67.9119 80.0345 67.7782 80.1505 67.6669C80.2689 67.5556 80.4097 67.5 80.5731 67.5C80.7364 67.5 80.8761 67.5556 80.9921 67.6669C81.1105 67.7782 81.1697 67.9119 81.1697 68.0682C81.1697 68.2244 81.1105 68.3582 80.9921 68.4695C80.8761 68.5807 80.7364 68.6364 80.5731 68.6364ZM82.52 77.0455V69.5455H83.3296V70.4119H83.4291C83.4906 70.3172 83.5758 70.1965 83.6847 70.0497C83.796 69.9006 83.9546 69.768 84.1606 69.652C84.3689 69.5336 84.6507 69.4744 85.0058 69.4744C85.4651 69.4744 85.8699 69.5893 86.2203 69.8189C86.5706 70.0485 86.8441 70.3741 87.0406 70.7955C87.2371 71.2169 87.3353 71.714 87.3353 72.2869C87.3353 72.8646 87.2371 73.3653 87.0406 73.7891C86.8441 74.2105 86.5718 74.5372 86.2238 74.7692C85.8758 74.9988 85.4745 75.1136 85.02 75.1136C84.6696 75.1136 84.3891 75.0556 84.1784 74.9396C83.9677 74.8213 83.8055 74.6875 83.6919 74.5384C83.5782 74.3868 83.4906 74.2614 83.4291 74.1619H83.358V77.0455H82.52ZM83.3438 72.2727C83.3438 72.6847 83.4042 73.0481 83.5249 73.3629C83.6457 73.6754 83.8221 73.9205 84.0541 74.098C84.2861 74.2732 84.5702 74.3608 84.9063 74.3608C85.2567 74.3608 85.5491 74.2685 85.7835 74.0838C86.0202 73.8968 86.1978 73.6458 86.3161 73.331C86.4369 73.0137 86.4972 72.661 86.4972 72.2727C86.4972 71.8892 86.4381 71.5436 86.3197 71.2358C86.2037 70.9257 86.0273 70.6806 85.7906 70.5007C85.5562 70.3184 85.2615 70.2273 84.9063 70.2273C84.5654 70.2273 84.279 70.3137 84.047 70.4865C83.815 70.657 83.6398 70.8961 83.5214 71.2038C83.403 71.5092 83.3438 71.8655 83.3438 72.2727ZM92.4774 70.767L91.7245 70.9801C91.6772 70.8546 91.6073 70.7327 91.515 70.6143C91.425 70.4936 91.3019 70.3942 91.1457 70.3161C90.9894 70.2379 90.7894 70.1989 90.5455 70.1989C90.2117 70.1989 89.9336 70.2758 89.711 70.4297C89.4909 70.5812 89.3808 70.7741 89.3808 71.0085C89.3808 71.2169 89.4565 71.3814 89.608 71.5021C89.7596 71.6229 89.9963 71.7235 90.3183 71.804L91.1279 72.0028C91.6156 72.1212 91.979 72.3023 92.2181 72.5462C92.4572 72.7876 92.5768 73.099 92.5768 73.4801C92.5768 73.7926 92.4868 74.072 92.3069 74.3182C92.1294 74.5644 91.8808 74.7585 91.5612 74.9006C91.2416 75.0426 90.8699 75.1136 90.4461 75.1136C89.8898 75.1136 89.4293 74.9929 89.0647 74.7514C88.7001 74.5099 88.4693 74.1572 88.3722 73.6932L89.1677 73.4943C89.2435 73.7879 89.3867 74.008 89.5974 74.1548C89.8105 74.3016 90.0886 74.375 90.4319 74.375C90.8225 74.375 91.1327 74.2921 91.3623 74.1264C91.5943 73.9583 91.7103 73.7571 91.7103 73.5227C91.7103 73.3333 91.644 73.1747 91.5115 73.0469C91.3789 72.9167 91.1753 72.8196 90.9007 72.7557L89.9916 72.5426C89.492 72.4242 89.1251 72.2408 88.8907 71.9922C88.6587 71.7412 88.5427 71.4276 88.5427 71.0511C88.5427 70.7434 88.6291 70.4711 88.8019 70.2344C88.9771 69.9976 89.2151 69.8118 89.5157 69.6768C89.8187 69.5419 90.162 69.4744 90.5455 69.4744C91.0853 69.4744 91.5091 69.5928 91.8169 69.8295C92.127 70.0663 92.3472 70.3788 92.4774 70.767ZM97.2758 72.7699V69.5455H98.1139V75H97.2758V74.0767H97.219C97.0912 74.3537 96.8923 74.5893 96.6224 74.7834C96.3525 74.9751 96.0116 75.071 95.5997 75.071C95.2588 75.071 94.9558 74.9964 94.6906 74.8473C94.4255 74.6958 94.2171 74.4685 94.0656 74.1655C93.9141 73.8601 93.8383 73.4754 93.8383 73.0114V69.5455H94.6764V72.9545C94.6764 73.3523 94.7877 73.6695 95.0102 73.9062C95.2351 74.143 95.5216 74.2614 95.8696 74.2614C96.0779 74.2614 96.2898 74.2081 96.5052 74.1016C96.723 73.995 96.9053 73.8317 97.0521 73.6115C97.2013 73.3913 97.2758 73.1108 97.2758 72.7699ZM99.6489 75V69.5455H100.459V70.3977H100.53C100.643 70.1065 100.827 69.8804 101.08 69.7195C101.333 69.5561 101.638 69.4744 101.993 69.4744C102.352 69.4744 102.652 69.5561 102.891 69.7195C103.133 69.8804 103.321 70.1065 103.456 70.3977H103.513C103.652 70.116 103.862 69.8923 104.141 69.7266C104.42 69.5585 104.755 69.4744 105.146 69.4744C105.634 69.4744 106.033 69.6271 106.343 69.9325C106.653 70.2356 106.808 70.7079 106.808 71.3494V75H105.97V71.3494C105.97 70.947 105.86 70.6593 105.64 70.4865C105.419 70.3137 105.16 70.2273 104.862 70.2273C104.478 70.2273 104.181 70.3433 103.971 70.5753C103.76 70.8049 103.655 71.0961 103.655 71.4489V75H102.802V71.2642C102.802 70.9541 102.702 70.7043 102.5 70.5149C102.299 70.3232 102.04 70.2273 101.723 70.2273C101.505 70.2273 101.301 70.2853 101.112 70.4013C100.925 70.5173 100.773 70.6783 100.657 70.8842C100.544 71.0878 100.487 71.3234 100.487 71.5909V75H99.6489ZM113.212 75.1136C112.758 75.1136 112.357 74.9988 112.009 74.7692C111.661 74.5372 111.388 74.2105 111.192 73.7891C110.995 73.3653 110.897 72.8646 110.897 72.2869C110.897 71.714 110.995 71.2169 111.192 70.7955C111.388 70.3741 111.662 70.0485 112.012 69.8189C112.363 69.5893 112.767 69.4744 113.227 69.4744C113.582 69.4744 113.862 69.5336 114.068 69.652C114.277 69.768 114.435 69.9006 114.544 70.0497C114.655 70.1965 114.742 70.3172 114.803 70.4119H114.874V67.7273H115.712V75H114.903V74.1619H114.803C114.742 74.2614 114.654 74.3868 114.541 74.5384C114.427 74.6875 114.265 74.8213 114.054 74.9396C113.843 75.0556 113.563 75.1136 113.212 75.1136ZM113.326 74.3608C113.662 74.3608 113.946 74.2732 114.178 74.098C114.41 73.9205 114.587 73.6754 114.707 73.3629C114.828 73.0481 114.889 72.6847 114.889 72.2727C114.889 71.8655 114.829 71.5092 114.711 71.2038C114.593 70.8961 114.417 70.657 114.185 70.4865C113.953 70.3137 113.667 70.2273 113.326 70.2273C112.971 70.2273 112.675 70.3184 112.438 70.5007C112.204 70.6806 112.028 70.9257 111.909 71.2358C111.793 71.5436 111.735 71.8892 111.735 72.2727C111.735 72.661 111.794 73.0137 111.913 73.331C112.033 73.6458 112.211 73.8968 112.445 74.0838C112.682 74.2685 112.976 74.3608 113.326 74.3608ZM119.58 75.1136C119.087 75.1136 118.655 74.9964 118.283 74.7621C117.914 74.5277 117.625 74.1998 117.417 73.7784C117.211 73.357 117.108 72.8646 117.108 72.3011C117.108 71.733 117.211 71.237 117.417 70.8132C117.625 70.3894 117.914 70.0604 118.283 69.826C118.655 69.5916 119.087 69.4744 119.58 69.4744C120.072 69.4744 120.503 69.5916 120.872 69.826C121.244 70.0604 121.533 70.3894 121.739 70.8132C121.947 71.237 122.051 71.733 122.051 72.3011C122.051 72.8646 121.947 73.357 121.739 73.7784C121.533 74.1998 121.244 74.5277 120.872 74.7621C120.503 74.9964 120.072 75.1136 119.58 75.1136ZM119.58 74.3608C119.954 74.3608 120.261 74.2649 120.503 74.0732C120.744 73.8814 120.923 73.6293 121.039 73.3168C121.155 73.0043 121.213 72.6657 121.213 72.3011C121.213 71.9366 121.155 71.5968 121.039 71.282C120.923 70.9671 120.744 70.7126 120.503 70.5185C120.261 70.3243 119.954 70.2273 119.58 70.2273C119.206 70.2273 118.898 70.3243 118.656 70.5185C118.415 70.7126 118.236 70.9671 118.12 71.282C118.004 71.5968 117.946 71.9366 117.946 72.3011C117.946 72.6657 118.004 73.0043 118.12 73.3168C118.236 73.6293 118.415 73.8814 118.656 74.0732C118.898 74.2649 119.206 74.3608 119.58 74.3608ZM124.169 67.7273V75H123.331V67.7273H124.169ZM127.919 75.1136C127.427 75.1136 126.995 74.9964 126.623 74.7621C126.254 74.5277 125.965 74.1998 125.757 73.7784C125.551 73.357 125.448 72.8646 125.448 72.3011C125.448 71.733 125.551 71.237 125.757 70.8132C125.965 70.3894 126.254 70.0604 126.623 69.826C126.995 69.5916 127.427 69.4744 127.919 69.4744C128.412 69.4744 128.843 69.5916 129.212 69.826C129.584 70.0604 129.873 70.3894 130.079 70.8132C130.287 71.237 130.391 71.733 130.391 72.3011C130.391 72.8646 130.287 73.357 130.079 73.7784C129.873 74.1998 129.584 74.5277 129.212 74.7621C128.843 74.9964 128.412 75.1136 127.919 75.1136ZM127.919 74.3608C128.294 74.3608 128.601 74.2649 128.843 74.0732C129.084 73.8814 129.263 73.6293 129.379 73.3168C129.495 73.0043 129.553 72.6657 129.553 72.3011C129.553 71.9366 129.495 71.5968 129.379 71.282C129.263 70.9671 129.084 70.7126 128.843 70.5185C128.601 70.3243 128.294 70.2273 127.919 70.2273C127.545 70.2273 127.238 70.3243 126.996 70.5185C126.755 70.7126 126.576 70.9671 126.46 71.282C126.344 71.5968 126.286 71.9366 126.286 72.3011C126.286 72.6657 126.344 73.0043 126.46 73.3168C126.576 73.6293 126.755 73.8814 126.996 74.0732C127.238 74.2649 127.545 74.3608 127.919 74.3608ZM131.67 75V69.5455H132.48V70.3693H132.537C132.636 70.0994 132.816 69.8804 133.077 69.7124C133.337 69.5443 133.631 69.4602 133.957 69.4602C134.019 69.4602 134.096 69.4614 134.188 69.4638C134.28 69.4661 134.35 69.4697 134.398 69.4744V70.3267C134.369 70.3196 134.304 70.3089 134.202 70.2947C134.103 70.2782 133.998 70.2699 133.886 70.2699C133.621 70.2699 133.384 70.3255 133.176 70.4368C132.97 70.5457 132.807 70.6972 132.686 70.8913C132.568 71.0831 132.508 71.3021 132.508 71.5483V75H131.67ZM142.067 70.767L141.314 70.9801C141.267 70.8546 141.197 70.7327 141.105 70.6143C141.015 70.4936 140.892 70.3942 140.736 70.3161C140.579 70.2379 140.379 70.1989 140.135 70.1989C139.802 70.1989 139.523 70.2758 139.301 70.4297C139.081 70.5812 138.971 70.7741 138.971 71.0085C138.971 71.2169 139.046 71.3814 139.198 71.5021C139.349 71.6229 139.586 71.7235 139.908 71.804L140.718 72.0028C141.205 72.1212 141.569 72.3023 141.808 72.5462C142.047 72.7876 142.167 73.099 142.167 73.4801C142.167 73.7926 142.077 74.072 141.897 74.3182C141.719 74.5644 141.471 74.7585 141.151 74.9006C140.831 75.0426 140.46 75.1136 140.036 75.1136C139.48 75.1136 139.019 74.9929 138.655 74.7514C138.29 74.5099 138.059 74.1572 137.962 73.6932L138.758 73.4943C138.833 73.7879 138.977 74.008 139.187 74.1548C139.4 74.3016 139.678 74.375 140.022 74.375C140.412 74.375 140.723 74.2921 140.952 74.1264C141.184 73.9583 141.3 73.7571 141.3 73.5227C141.3 73.3333 141.234 73.1747 141.101 73.0469C140.969 72.9167 140.765 72.8196 140.491 72.7557L139.581 72.5426C139.082 72.4242 138.715 72.2408 138.481 71.9922C138.249 71.7412 138.133 71.4276 138.133 71.0511C138.133 70.7434 138.219 70.4711 138.392 70.2344C138.567 69.9976 138.805 69.8118 139.106 69.6768C139.409 69.5419 139.752 69.4744 140.135 69.4744C140.675 69.4744 141.099 69.5928 141.407 69.8295C141.717 70.0663 141.937 70.3788 142.067 70.767ZM143.428 75V69.5455H144.266V75H143.428ZM143.854 68.6364C143.691 68.6364 143.55 68.5807 143.432 68.4695C143.316 68.3582 143.258 68.2244 143.258 68.0682C143.258 67.9119 143.316 67.7782 143.432 67.6669C143.55 67.5556 143.691 67.5 143.854 67.5C144.018 67.5 144.157 67.5556 144.273 67.6669C144.392 67.7782 144.451 67.9119 144.451 68.0682C144.451 68.2244 144.392 68.3582 144.273 68.4695C144.157 68.5807 144.018 68.6364 143.854 68.6364ZM148.173 69.5455V70.2557H145.347V69.5455H148.173ZM146.171 68.2386H147.009V73.4375C147.009 73.6742 147.043 73.8518 147.112 73.9702C147.183 74.0862 147.273 74.1643 147.381 74.2045C147.493 74.2424 147.61 74.2614 147.733 74.2614C147.825 74.2614 147.901 74.2566 147.96 74.2472C148.02 74.2353 148.067 74.2259 148.102 74.2188L148.273 74.9716C148.216 74.9929 148.137 75.0142 148.035 75.0355C147.933 75.0592 147.804 75.071 147.648 75.071C147.411 75.071 147.179 75.0201 146.952 74.9183C146.727 74.8165 146.54 74.6615 146.391 74.4531C146.244 74.2448 146.171 73.982 146.171 73.6648V68.2386ZM153.852 75.1278C153.506 75.1278 153.192 75.0627 152.911 74.9325C152.629 74.8 152.405 74.6094 152.239 74.3608C152.074 74.1098 151.991 73.8068 151.991 73.4517C151.991 73.1392 152.052 72.8859 152.176 72.6918C152.299 72.4953 152.463 72.3414 152.669 72.2301C152.875 72.1188 153.102 72.036 153.351 71.9815C153.602 71.9247 153.854 71.8797 154.107 71.8466C154.439 71.804 154.707 71.772 154.913 71.7507C155.122 71.727 155.273 71.688 155.368 71.6335C155.465 71.5791 155.514 71.4844 155.514 71.3494V71.321C155.514 70.9706 155.418 70.6984 155.226 70.5043C155.037 70.3101 154.749 70.2131 154.363 70.2131C153.963 70.2131 153.649 70.3007 153.422 70.4759C153.195 70.651 153.035 70.8381 152.943 71.0369L152.147 70.7528C152.289 70.4214 152.479 70.1634 152.715 69.9787C152.954 69.7917 153.215 69.6615 153.497 69.5881C153.781 69.5123 154.06 69.4744 154.335 69.4744C154.51 69.4744 154.711 69.4957 154.938 69.5384C155.168 69.5786 155.389 69.6626 155.602 69.7905C155.818 69.9183 155.997 70.1113 156.139 70.3693C156.281 70.6274 156.352 70.973 156.352 71.4062V75H155.514V74.2614H155.471C155.414 74.3797 155.319 74.5064 155.187 74.6413C155.054 74.7763 154.878 74.8911 154.658 74.9858C154.438 75.0805 154.169 75.1278 153.852 75.1278ZM153.979 74.375C154.311 74.375 154.59 74.3099 154.818 74.1797C155.047 74.0495 155.22 73.8814 155.336 73.6754C155.454 73.4695 155.514 73.2528 155.514 73.0256V72.2585C155.478 72.3011 155.4 72.3402 155.279 72.3757C155.161 72.4089 155.024 72.4384 154.867 72.4645C154.713 72.4882 154.563 72.5095 154.416 72.5284C154.272 72.545 154.155 72.5592 154.065 72.571C153.847 72.5994 153.643 72.6456 153.454 72.7095C153.267 72.7711 153.115 72.8646 152.999 72.9901C152.886 73.1132 152.829 73.2812 152.829 73.4943C152.829 73.7855 152.937 74.0057 153.152 74.1548C153.37 74.3016 153.646 74.375 153.979 74.375ZM157.881 75V69.5455H158.691V70.3977H158.762C158.876 70.1065 159.059 69.8804 159.312 69.7195C159.566 69.5561 159.87 69.4744 160.225 69.4744C160.585 69.4744 160.884 69.5561 161.123 69.7195C161.365 69.8804 161.553 70.1065 161.688 70.3977H161.745C161.885 70.116 162.094 69.8923 162.373 69.7266C162.653 69.5585 162.988 69.4744 163.378 69.4744C163.866 69.4744 164.265 69.6271 164.575 69.9325C164.885 70.2356 165.04 70.7079 165.04 71.3494V75H164.202V71.3494C164.202 70.947 164.092 70.6593 163.872 70.4865C163.652 70.3137 163.393 70.2273 163.094 70.2273C162.711 70.2273 162.414 70.3433 162.203 70.5753C161.992 70.8049 161.887 71.0961 161.887 71.4489V75H161.035V71.2642C161.035 70.9541 160.934 70.7043 160.733 70.5149C160.532 70.3232 160.272 70.2273 159.955 70.2273C159.737 70.2273 159.534 70.2853 159.344 70.4013C159.157 70.5173 159.006 70.6783 158.89 70.8842C158.776 71.0878 158.719 71.3234 158.719 71.5909V75H157.881ZM168.86 75.1136C168.334 75.1136 167.881 74.9976 167.5 74.7656C167.121 74.5312 166.828 74.2045 166.622 73.7855C166.419 73.3641 166.317 72.8741 166.317 72.3153C166.317 71.7566 166.419 71.2642 166.622 70.8381C166.828 70.4096 167.115 70.0758 167.482 69.8366C167.851 69.5952 168.282 69.4744 168.774 69.4744C169.059 69.4744 169.339 69.5218 169.616 69.6165C169.893 69.7112 170.145 69.8651 170.372 70.0781C170.6 70.2888 170.781 70.5682 170.916 70.9162C171.051 71.2642 171.118 71.6927 171.118 72.2017V72.5568H166.914V71.8324H170.266C170.266 71.5246 170.204 71.25 170.081 71.0085C169.96 70.767 169.788 70.5765 169.563 70.4368C169.34 70.2971 169.077 70.2273 168.774 70.2273C168.441 70.2273 168.152 70.3101 167.908 70.4759C167.666 70.6392 167.481 70.8523 167.35 71.1151C167.22 71.3778 167.155 71.6596 167.155 71.9602V72.4432C167.155 72.8551 167.226 73.2043 167.368 73.4908C167.513 73.7749 167.713 73.9915 167.968 74.1406C168.224 74.2874 168.521 74.3608 168.86 74.3608C169.08 74.3608 169.279 74.33 169.456 74.2685C169.636 74.2045 169.791 74.1098 169.921 73.9844C170.052 73.8565 170.152 73.6979 170.223 73.5085L171.033 73.7358C170.948 74.0104 170.804 74.2519 170.603 74.4602C170.402 74.6662 170.153 74.8272 169.858 74.9432C169.562 75.0568 169.229 75.1136 168.86 75.1136ZM174.765 69.5455V70.2557H171.938V69.5455H174.765ZM172.762 68.2386H173.6V73.4375C173.6 73.6742 173.635 73.8518 173.703 73.9702C173.774 74.0862 173.864 74.1643 173.973 74.2045C174.085 74.2424 174.202 74.2614 174.325 74.2614C174.417 74.2614 174.493 74.2566 174.552 74.2472C174.611 74.2353 174.659 74.2259 174.694 74.2188L174.865 74.9716C174.808 74.9929 174.728 75.0142 174.627 75.0355C174.525 75.0592 174.396 75.071 174.24 75.071C174.003 75.071 173.771 75.0201 173.544 74.9183C173.319 74.8165 173.132 74.6615 172.983 74.4531C172.836 74.2448 172.762 73.982 172.762 73.6648V68.2386ZM177.276 74.0057L177.219 74.3892C177.179 74.6591 177.117 74.9479 177.034 75.2557C176.954 75.5634 176.87 75.8535 176.782 76.1257C176.695 76.398 176.622 76.6146 176.566 76.7756H175.926C175.957 76.6241 175.997 76.424 176.047 76.1754C176.097 75.9268 176.147 75.6487 176.196 75.3409C176.248 75.0355 176.291 74.723 176.324 74.4034L176.367 74.0057H177.276ZM183.857 75.1136C183.346 75.1136 182.905 74.9929 182.536 74.7514C182.167 74.5099 181.883 74.1773 181.684 73.7536C181.485 73.3298 181.385 72.8456 181.385 72.3011C181.385 71.7472 181.487 71.2583 181.691 70.8345C181.897 70.4084 182.183 70.0758 182.55 69.8366C182.919 69.5952 183.35 69.4744 183.843 69.4744C184.226 69.4744 184.572 69.5455 184.88 69.6875C185.187 69.8295 185.44 70.0284 185.636 70.2841C185.833 70.5398 185.955 70.8381 186.002 71.179H185.164C185.1 70.9304 184.958 70.7102 184.738 70.5185C184.52 70.3243 184.226 70.2273 183.857 70.2273C183.53 70.2273 183.244 70.3125 182.998 70.483C182.754 70.651 182.563 70.889 182.426 71.1967C182.291 71.5021 182.223 71.8608 182.223 72.2727C182.223 72.6941 182.29 73.0611 182.422 73.3736C182.557 73.6861 182.747 73.9287 182.991 74.1016C183.237 74.2744 183.526 74.3608 183.857 74.3608C184.075 74.3608 184.272 74.3229 184.45 74.2472C184.628 74.1714 184.778 74.0625 184.901 73.9205C185.024 73.7784 185.112 73.608 185.164 73.4091H186.002C185.955 73.7311 185.837 74.0211 185.65 74.2791C185.466 74.5348 185.221 74.7384 184.915 74.8899C184.612 75.0391 184.259 75.1136 183.857 75.1136ZM189.443 75.1136C188.95 75.1136 188.518 74.9964 188.147 74.7621C187.777 74.5277 187.489 74.1998 187.28 73.7784C187.074 73.357 186.971 72.8646 186.971 72.3011C186.971 71.733 187.074 71.237 187.28 70.8132C187.489 70.3894 187.777 70.0604 188.147 69.826C188.518 69.5916 188.95 69.4744 189.443 69.4744C189.935 69.4744 190.366 69.5916 190.736 69.826C191.107 70.0604 191.396 70.3894 191.602 70.8132C191.81 71.237 191.915 71.733 191.915 72.3011C191.915 72.8646 191.81 73.357 191.602 73.7784C191.396 74.1998 191.107 74.5277 190.736 74.7621C190.366 74.9964 189.935 75.1136 189.443 75.1136ZM189.443 74.3608C189.817 74.3608 190.125 74.2649 190.366 74.0732C190.608 73.8814 190.786 73.6293 190.902 73.3168C191.018 73.0043 191.076 72.6657 191.076 72.3011C191.076 71.9366 191.018 71.5968 190.902 71.282C190.786 70.9671 190.608 70.7126 190.366 70.5185C190.125 70.3243 189.817 70.2273 189.443 70.2273C189.069 70.2273 188.761 70.3243 188.52 70.5185C188.278 70.7126 188.099 70.9671 187.983 71.282C187.867 71.5968 187.809 71.9366 187.809 72.3011C187.809 72.6657 187.867 73.0043 187.983 73.3168C188.099 73.6293 188.278 73.8814 188.52 74.0732C188.761 74.2649 189.069 74.3608 189.443 74.3608ZM194.032 71.7188V75H193.194V69.5455H194.003V70.3977H194.074C194.202 70.1207 194.396 69.8982 194.657 69.7301C194.917 69.5597 195.253 69.4744 195.665 69.4744C196.035 69.4744 196.358 69.5502 196.635 69.7017C196.912 69.8509 197.127 70.0781 197.281 70.3835C197.435 70.6866 197.512 71.0701 197.512 71.5341V75H196.674V71.5909C196.674 71.1624 196.563 70.8286 196.34 70.5895C196.118 70.348 195.812 70.2273 195.424 70.2273C195.156 70.2273 194.917 70.2853 194.707 70.4013C194.498 70.5173 194.334 70.6866 194.213 70.9091C194.092 71.1316 194.032 71.4015 194.032 71.7188ZM202.907 70.767L202.154 70.9801C202.107 70.8546 202.037 70.7327 201.945 70.6143C201.855 70.4936 201.732 70.3942 201.575 70.3161C201.419 70.2379 201.219 70.1989 200.975 70.1989C200.641 70.1989 200.363 70.2758 200.141 70.4297C199.921 70.5812 199.81 70.7741 199.81 71.0085C199.81 71.2169 199.886 71.3814 200.038 71.5021C200.189 71.6229 200.426 71.7235 200.748 71.804L201.558 72.0028C202.045 72.1212 202.409 72.3023 202.648 72.5462C202.887 72.7876 203.006 73.099 203.006 73.4801C203.006 73.7926 202.917 74.072 202.737 74.3182C202.559 74.5644 202.31 74.7585 201.991 74.9006C201.671 75.0426 201.3 75.1136 200.876 75.1136C200.319 75.1136 199.859 74.9929 199.494 74.7514C199.13 74.5099 198.899 74.1572 198.802 73.6932L199.597 73.4943C199.673 73.7879 199.816 74.008 200.027 74.1548C200.24 74.3016 200.518 74.375 200.862 74.375C201.252 74.375 201.562 74.2921 201.792 74.1264C202.024 73.9583 202.14 73.7571 202.14 73.5227C202.14 73.3333 202.074 73.1747 201.941 73.0469C201.809 72.9167 201.605 72.8196 201.33 72.7557L200.421 72.5426C199.922 72.4242 199.555 72.2408 199.32 71.9922C199.088 71.7412 198.972 71.4276 198.972 71.0511C198.972 70.7434 199.059 70.4711 199.232 70.2344C199.407 69.9976 199.645 69.8118 199.945 69.6768C200.248 69.5419 200.592 69.4744 200.975 69.4744C201.515 69.4744 201.939 69.5928 202.247 69.8295C202.557 70.0663 202.777 70.3788 202.907 70.767ZM206.555 75.1136C206.029 75.1136 205.576 74.9976 205.195 74.7656C204.816 74.5312 204.524 74.2045 204.318 73.7855C204.114 73.3641 204.012 72.8741 204.012 72.3153C204.012 71.7566 204.114 71.2642 204.318 70.8381C204.524 70.4096 204.81 70.0758 205.177 69.8366C205.546 69.5952 205.977 69.4744 206.47 69.4744C206.754 69.4744 207.034 69.5218 207.311 69.6165C207.588 69.7112 207.84 69.8651 208.068 70.0781C208.295 70.2888 208.476 70.5682 208.611 70.9162C208.746 71.2642 208.813 71.6927 208.813 72.2017V72.5568H204.609V71.8324H207.961C207.961 71.5246 207.9 71.25 207.777 71.0085C207.656 70.767 207.483 70.5765 207.258 70.4368C207.036 70.2971 206.773 70.2273 206.47 70.2273C206.136 70.2273 205.847 70.3101 205.603 70.4759C205.362 70.6392 205.176 70.8523 205.046 71.1151C204.916 71.3778 204.85 71.6596 204.85 71.9602V72.4432C204.85 72.8551 204.921 73.2043 205.063 73.4908C205.208 73.7749 205.408 73.9915 205.664 74.1406C205.919 74.2874 206.216 74.3608 206.555 74.3608C206.775 74.3608 206.974 74.33 207.152 74.2685C207.331 74.2045 207.487 74.1098 207.617 73.9844C207.747 73.8565 207.848 73.6979 207.919 73.5085L208.728 73.7358C208.643 74.0104 208.5 74.2519 208.299 74.4602C208.097 74.6662 207.849 74.8272 207.553 74.9432C207.257 75.0568 206.924 75.1136 206.555 75.1136ZM212.304 75.1136C211.793 75.1136 211.353 74.9929 210.983 74.7514C210.614 74.5099 210.33 74.1773 210.131 73.7536C209.932 73.3298 209.833 72.8456 209.833 72.3011C209.833 71.7472 209.934 71.2583 210.138 70.8345C210.344 70.4084 210.63 70.0758 210.997 69.8366C211.367 69.5952 211.798 69.4744 212.29 69.4744C212.674 69.4744 213.019 69.5455 213.327 69.6875C213.635 69.8295 213.887 70.0284 214.083 70.2841C214.28 70.5398 214.402 70.8381 214.449 71.179H213.611C213.547 70.9304 213.405 70.7102 213.185 70.5185C212.967 70.3243 212.674 70.2273 212.304 70.2273C211.978 70.2273 211.691 70.3125 211.445 70.483C211.201 70.651 211.01 70.889 210.873 71.1967C210.738 71.5021 210.671 71.8608 210.671 72.2727C210.671 72.6941 210.737 73.0611 210.87 73.3736C211.005 73.6861 211.194 73.9287 211.438 74.1016C211.684 74.2744 211.973 74.3608 212.304 74.3608C212.522 74.3608 212.72 74.3229 212.897 74.2472C213.075 74.1714 213.225 74.0625 213.348 73.9205C213.471 73.7784 213.559 73.608 213.611 73.4091H214.449C214.402 73.7311 214.285 74.0211 214.098 74.2791C213.913 74.5348 213.668 74.7384 213.362 74.8899C213.059 75.0391 212.707 75.1136 212.304 75.1136ZM218.046 69.5455V70.2557H215.22V69.5455H218.046ZM216.044 68.2386H216.882V73.4375C216.882 73.6742 216.916 73.8518 216.985 73.9702C217.056 74.0862 217.146 74.1643 217.255 74.2045C217.366 74.2424 217.483 74.2614 217.606 74.2614C217.698 74.2614 217.774 74.2566 217.833 74.2472C217.893 74.2353 217.94 74.2259 217.975 74.2188L218.146 74.9716C218.089 74.9929 218.01 75.0142 217.908 75.0355C217.806 75.0592 217.677 75.071 217.521 75.071C217.284 75.071 217.052 75.0201 216.825 74.9183C216.6 74.8165 216.413 74.6615 216.264 74.4531C216.117 74.2448 216.044 73.982 216.044 73.6648V68.2386ZM221.535 75.1136C221.01 75.1136 220.556 74.9976 220.175 74.7656C219.797 74.5312 219.504 74.2045 219.298 73.7855C219.095 73.3641 218.993 72.8741 218.993 72.3153C218.993 71.7566 219.095 71.2642 219.298 70.8381C219.504 70.4096 219.791 70.0758 220.158 69.8366C220.527 69.5952 220.958 69.4744 221.45 69.4744C221.734 69.4744 222.015 69.5218 222.292 69.6165C222.569 69.7112 222.821 69.8651 223.048 70.0781C223.275 70.2888 223.457 70.5682 223.592 70.9162C223.726 71.2642 223.794 71.6927 223.794 72.2017V72.5568H219.589V71.8324H222.942C222.942 71.5246 222.88 71.25 222.757 71.0085C222.636 70.767 222.463 70.5765 222.239 70.4368C222.016 70.2971 221.753 70.2273 221.45 70.2273C221.116 70.2273 220.828 70.3101 220.584 70.4759C220.342 70.6392 220.156 70.8523 220.026 71.1151C219.896 71.3778 219.831 71.6596 219.831 71.9602V72.4432C219.831 72.8551 219.902 73.2043 220.044 73.4908C220.188 73.7749 220.388 73.9915 220.644 74.1406C220.9 74.2874 221.197 74.3608 221.535 74.3608C221.756 74.3608 221.954 74.33 222.132 74.2685C222.312 74.2045 222.467 74.1098 222.597 73.9844C222.727 73.8565 222.828 73.6979 222.899 73.5085L223.709 73.7358C223.623 74.0104 223.48 74.2519 223.279 74.4602C223.078 74.6662 222.829 74.8272 222.533 74.9432C222.237 75.0568 221.905 75.1136 221.535 75.1136ZM227.441 69.5455V70.2557H224.614V69.5455H227.441ZM225.438 68.2386H226.276V73.4375C226.276 73.6742 226.311 73.8518 226.379 73.9702C226.45 74.0862 226.54 74.1643 226.649 74.2045C226.76 74.2424 226.878 74.2614 227.001 74.2614C227.093 74.2614 227.169 74.2566 227.228 74.2472C227.287 74.2353 227.334 74.2259 227.37 74.2188L227.54 74.9716C227.484 74.9929 227.404 75.0142 227.302 75.0355C227.201 75.0592 227.072 75.071 226.915 75.071C226.679 75.071 226.447 75.0201 226.219 74.9183C225.994 74.8165 225.807 74.6615 225.658 74.4531C225.512 74.2448 225.438 73.982 225.438 73.6648V68.2386ZM232.139 72.7699V69.5455H232.977V75H232.139V74.0767H232.082C231.954 74.3537 231.756 74.5893 231.486 74.7834C231.216 74.9751 230.875 75.071 230.463 75.071C230.122 75.071 229.819 74.9964 229.554 74.8473C229.289 74.6958 229.08 74.4685 228.929 74.1655C228.777 73.8601 228.702 73.4754 228.702 73.0114V69.5455H229.54V72.9545C229.54 73.3523 229.651 73.6695 229.873 73.9062C230.098 74.143 230.385 74.2614 230.733 74.2614C230.941 74.2614 231.153 74.2081 231.369 74.1016C231.586 73.995 231.769 73.8317 231.915 73.6115C232.065 73.3913 232.139 73.1108 232.139 72.7699ZM234.512 75V69.5455H235.322V70.3693H235.379C235.478 70.0994 235.658 69.8804 235.918 69.7124C236.179 69.5443 236.472 69.4602 236.799 69.4602C236.861 69.4602 236.938 69.4614 237.03 69.4638C237.122 69.4661 237.192 69.4697 237.239 69.4744V70.3267C237.211 70.3196 237.146 70.3089 237.044 70.2947C236.945 70.2782 236.839 70.2699 236.728 70.2699C236.463 70.2699 236.226 70.3255 236.018 70.4368C235.812 70.5457 235.649 70.6972 235.528 70.8913C235.409 71.0831 235.35 71.3021 235.35 71.5483V75H234.512ZM242.65 75.1278C242.305 75.1278 241.991 75.0627 241.709 74.9325C241.428 74.8 241.204 74.6094 241.038 74.3608C240.873 74.1098 240.79 73.8068 240.79 73.4517C240.79 73.1392 240.851 72.8859 240.974 72.6918C241.097 72.4953 241.262 72.3414 241.468 72.2301C241.674 72.1188 241.901 72.036 242.15 71.9815C242.401 71.9247 242.653 71.8797 242.906 71.8466C243.238 71.804 243.506 71.772 243.712 71.7507C243.921 71.727 244.072 71.688 244.167 71.6335C244.264 71.5791 244.312 71.4844 244.312 71.3494V71.321C244.312 70.9706 244.217 70.6984 244.025 70.5043C243.835 70.3101 243.548 70.2131 243.162 70.2131C242.762 70.2131 242.448 70.3007 242.221 70.4759C241.994 70.651 241.834 70.8381 241.741 71.0369L240.946 70.7528C241.088 70.4214 241.277 70.1634 241.514 69.9787C241.753 69.7917 242.014 69.6615 242.295 69.5881C242.579 69.5123 242.859 69.4744 243.133 69.4744C243.309 69.4744 243.51 69.4957 243.737 69.5384C243.967 69.5786 244.188 69.6626 244.401 69.7905C244.617 69.9183 244.795 70.1113 244.937 70.3693C245.079 70.6274 245.15 70.973 245.15 71.4062V75H244.312V74.2614H244.27C244.213 74.3797 244.118 74.5064 243.986 74.6413C243.853 74.7763 243.677 74.8911 243.457 74.9858C243.236 75.0805 242.968 75.1278 242.65 75.1278ZM242.778 74.375C243.11 74.375 243.389 74.3099 243.616 74.1797C243.846 74.0495 244.019 73.8814 244.135 73.6754C244.253 73.4695 244.312 73.2528 244.312 73.0256V72.2585C244.277 72.3011 244.199 72.3402 244.078 72.3757C243.96 72.4089 243.822 72.4384 243.666 72.4645C243.512 72.4882 243.362 72.5095 243.215 72.5284C243.071 72.545 242.954 72.5592 242.864 72.571C242.646 72.5994 242.442 72.6456 242.253 72.7095C242.066 72.7711 241.914 72.8646 241.798 72.9901C241.685 73.1132 241.628 73.2812 241.628 73.4943C241.628 73.7855 241.735 74.0057 241.951 74.1548C242.169 74.3016 242.445 74.375 242.778 74.375ZM248.74 75.1136C248.285 75.1136 247.884 74.9988 247.536 74.7692C247.188 74.5372 246.916 74.2105 246.719 73.7891C246.523 73.3653 246.424 72.8646 246.424 72.2869C246.424 71.714 246.523 71.2169 246.719 70.7955C246.916 70.3741 247.189 70.0485 247.54 69.8189C247.89 69.5893 248.295 69.4744 248.754 69.4744C249.109 69.4744 249.39 69.5336 249.596 69.652C249.804 69.768 249.963 69.9006 250.071 70.0497C250.183 70.1965 250.269 70.3172 250.331 70.4119H250.402V67.7273H251.24V75H250.43V74.1619H250.331C250.269 74.2614 250.182 74.3868 250.068 74.5384C249.954 74.6875 249.792 74.8213 249.581 74.9396C249.371 75.0556 249.09 75.1136 248.74 75.1136ZM248.853 74.3608C249.19 74.3608 249.474 74.2732 249.706 74.098C249.938 73.9205 250.114 73.6754 250.235 73.3629C250.356 73.0481 250.416 72.6847 250.416 72.2727C250.416 71.8655 250.357 71.5092 250.238 71.2038C250.12 70.8961 249.945 70.657 249.713 70.4865C249.481 70.3137 249.194 70.2273 248.853 70.2273C248.498 70.2273 248.202 70.3184 247.966 70.5007C247.731 70.6806 247.555 70.9257 247.437 71.2358C247.321 71.5436 247.263 71.8892 247.263 72.2727C247.263 72.661 247.322 73.0137 247.44 73.331C247.561 73.6458 247.738 73.8968 247.973 74.0838C248.209 74.2685 248.503 74.3608 248.853 74.3608ZM252.891 75V69.5455H253.729V75H252.891ZM253.317 68.6364C253.154 68.6364 253.013 68.5807 252.895 68.4695C252.779 68.3582 252.721 68.2244 252.721 68.0682C252.721 67.9119 252.779 67.7782 252.895 67.6669C253.013 67.5556 253.154 67.5 253.317 67.5C253.481 67.5 253.62 67.5556 253.736 67.6669C253.855 67.7782 253.914 67.9119 253.914 68.0682C253.914 68.2244 253.855 68.3582 253.736 68.4695C253.62 68.5807 253.481 68.6364 253.317 68.6364ZM255.264 77.0455V69.5455H256.074V70.4119H256.173C256.235 70.3172 256.32 70.1965 256.429 70.0497C256.54 69.9006 256.699 69.768 256.905 69.652C257.113 69.5336 257.395 69.4744 257.75 69.4744C258.209 69.4744 258.614 69.5893 258.964 69.8189C259.315 70.0485 259.588 70.3741 259.785 70.7955C259.981 71.2169 260.079 71.714 260.079 72.2869C260.079 72.8646 259.981 73.3653 259.785 73.7891C259.588 74.2105 259.316 74.5372 258.968 74.7692C258.62 74.9988 258.219 75.1136 257.764 75.1136C257.414 75.1136 257.133 75.0556 256.922 74.9396C256.712 74.8213 256.55 74.6875 256.436 74.5384C256.322 74.3868 256.235 74.2614 256.173 74.1619H256.102V77.0455H255.264ZM256.088 72.2727C256.088 72.6847 256.148 73.0481 256.269 73.3629C256.39 73.6754 256.566 73.9205 256.798 74.098C257.03 74.2732 257.314 74.3608 257.65 74.3608C258.001 74.3608 258.293 74.2685 258.528 74.0838C258.764 73.8968 258.942 73.6458 259.06 73.331C259.181 73.0137 259.241 72.661 259.241 72.2727C259.241 71.8892 259.182 71.5436 259.064 71.2358C258.948 70.9257 258.771 70.6806 258.535 70.5007C258.3 70.3184 258.006 70.2273 257.65 70.2273C257.31 70.2273 257.023 70.3137 256.791 70.4865C256.559 70.657 256.384 70.8961 256.266 71.2038C256.147 71.5092 256.088 71.8655 256.088 72.2727ZM261.358 75V69.5455H262.196V75H261.358ZM261.784 68.6364C261.621 68.6364 261.48 68.5807 261.361 68.4695C261.245 68.3582 261.187 68.2244 261.187 68.0682C261.187 67.9119 261.245 67.7782 261.361 67.6669C261.48 67.5556 261.621 67.5 261.784 67.5C261.947 67.5 262.087 67.5556 262.203 67.6669C262.321 67.7782 262.381 67.9119 262.381 68.0682C262.381 68.2244 262.321 68.3582 262.203 68.4695C262.087 68.5807 261.947 68.6364 261.784 68.6364ZM267.595 70.767L266.842 70.9801C266.794 70.8546 266.725 70.7327 266.632 70.6143C266.542 70.4936 266.419 70.3942 266.263 70.3161C266.107 70.2379 265.907 70.1989 265.663 70.1989C265.329 70.1989 265.051 70.2758 264.828 70.4297C264.608 70.5812 264.498 70.7741 264.498 71.0085C264.498 71.2169 264.574 71.3814 264.725 71.5021C264.877 71.6229 265.113 71.7235 265.435 71.804L266.245 72.0028C266.733 72.1212 267.096 72.3023 267.335 72.5462C267.574 72.7876 267.694 73.099 267.694 73.4801C267.694 73.7926 267.604 74.072 267.424 74.3182C267.247 74.5644 266.998 74.7585 266.678 74.9006C266.359 75.0426 265.987 75.1136 265.563 75.1136C265.007 75.1136 264.546 74.9929 264.182 74.7514C263.817 74.5099 263.586 74.1572 263.489 73.6932L264.285 73.4943C264.361 73.7879 264.504 74.008 264.715 74.1548C264.928 74.3016 265.206 74.375 265.549 74.375C265.94 74.375 266.25 74.2921 266.479 74.1264C266.711 73.9583 266.828 73.7571 266.828 73.5227C266.828 73.3333 266.761 73.1747 266.629 73.0469C266.496 72.9167 266.292 72.8196 266.018 72.7557L265.109 72.5426C264.609 72.4242 264.242 72.2408 264.008 71.9922C263.776 71.7412 263.66 71.4276 263.66 71.0511C263.66 70.7434 263.746 70.4711 263.919 70.2344C264.094 69.9976 264.332 69.8118 264.633 69.6768C264.936 69.5419 265.279 69.4744 265.663 69.4744C266.203 69.4744 266.626 69.5928 266.934 69.8295C267.244 70.0663 267.464 70.3788 267.595 70.767ZM271.171 75.1136C270.66 75.1136 270.22 74.9929 269.85 74.7514C269.481 74.5099 269.197 74.1773 268.998 73.7536C268.799 73.3298 268.7 72.8456 268.7 72.3011C268.7 71.7472 268.802 71.2583 269.005 70.8345C269.211 70.4084 269.498 70.0758 269.865 69.8366C270.234 69.5952 270.665 69.4744 271.157 69.4744C271.541 69.4744 271.886 69.5455 272.194 69.6875C272.502 69.8295 272.754 70.0284 272.951 70.2841C273.147 70.5398 273.269 70.8381 273.316 71.179H272.478C272.414 70.9304 272.272 70.7102 272.052 70.5185C271.834 70.3243 271.541 70.2273 271.171 70.2273C270.845 70.2273 270.558 70.3125 270.312 70.483C270.068 70.651 269.878 70.889 269.74 71.1967C269.605 71.5021 269.538 71.8608 269.538 72.2727C269.538 72.6941 269.604 73.0611 269.737 73.3736C269.872 73.6861 270.061 73.9287 270.305 74.1016C270.551 74.2744 270.84 74.3608 271.171 74.3608C271.389 74.3608 271.587 74.3229 271.764 74.2472C271.942 74.1714 272.092 74.0625 272.215 73.9205C272.339 73.7784 272.426 73.608 272.478 73.4091H273.316C273.269 73.7311 273.152 74.0211 272.965 74.2791C272.78 74.5348 272.535 74.7384 272.23 74.8899C271.927 75.0391 271.574 75.1136 271.171 75.1136ZM274.541 75V69.5455H275.38V75H274.541ZM274.968 68.6364C274.804 68.6364 274.663 68.5807 274.545 68.4695C274.429 68.3582 274.371 68.2244 274.371 68.0682C274.371 67.9119 274.429 67.7782 274.545 67.6669C274.663 67.5556 274.804 67.5 274.968 67.5C275.131 67.5 275.271 67.5556 275.387 67.6669C275.505 67.7782 275.564 67.9119 275.564 68.0682C275.564 68.2244 275.505 68.3582 275.387 68.4695C275.271 68.5807 275.131 68.6364 274.968 68.6364ZM277.753 71.7188V75H276.915V69.5455H277.724V70.3977H277.795C277.923 70.1207 278.117 69.8982 278.378 69.7301C278.638 69.5597 278.974 69.4744 279.386 69.4744C279.755 69.4744 280.079 69.5502 280.356 69.7017C280.633 69.8509 280.848 70.0781 281.002 70.3835C281.156 70.6866 281.233 71.0701 281.233 71.5341V75H280.395V71.5909C280.395 71.1624 280.283 70.8286 280.061 70.5895C279.838 70.348 279.533 70.2273 279.145 70.2273C278.877 70.2273 278.638 70.2853 278.427 70.4013C278.219 70.5173 278.054 70.6866 277.934 70.9091C277.813 71.1316 277.753 71.4015 277.753 71.7188ZM284.966 77.1591C284.561 77.1591 284.213 77.107 283.922 77.0028C283.631 76.901 283.388 76.7661 283.194 76.598C283.002 76.4323 282.849 76.2547 282.736 76.0653L283.403 75.5966C283.479 75.696 283.575 75.8097 283.691 75.9375C283.807 76.0677 283.966 76.1802 284.167 76.2749C284.37 76.3719 284.637 76.4205 284.966 76.4205C285.406 76.4205 285.77 76.3139 286.056 76.1009C286.342 75.8878 286.486 75.554 286.486 75.0994V73.9915H286.415C286.353 74.0909 286.266 74.214 286.152 74.3608C286.041 74.5052 285.88 74.6342 285.669 74.7479C285.461 74.8591 285.179 74.9148 284.824 74.9148C284.383 74.9148 283.988 74.8106 283.638 74.6023C283.29 74.3939 283.014 74.0909 282.81 73.6932C282.609 73.2955 282.508 72.8125 282.508 72.2443C282.508 71.6856 282.607 71.1991 282.803 70.7848C283 70.3681 283.273 70.0462 283.623 69.8189C283.974 69.5893 284.379 69.4744 284.838 69.4744C285.193 69.4744 285.475 69.5336 285.683 69.652C285.894 69.768 286.055 69.9006 286.166 70.0497C286.28 70.1965 286.367 70.3172 286.429 70.4119H286.514V69.5455H287.324V75.1562C287.324 75.625 287.217 76.0062 287.004 76.2997C286.793 76.5956 286.509 76.8123 286.152 76.9496C285.797 77.0893 285.401 77.1591 284.966 77.1591ZM284.937 74.1619C285.274 74.1619 285.558 74.085 285.79 73.9311C286.022 73.7772 286.198 73.5559 286.319 73.267C286.44 72.9782 286.5 72.6326 286.5 72.2301C286.5 71.8371 286.441 71.4903 286.322 71.1896C286.204 70.889 286.029 70.6534 285.797 70.483C285.565 70.3125 285.278 70.2273 284.937 70.2273C284.582 70.2273 284.286 70.3172 284.05 70.4972C283.815 70.6771 283.639 70.9186 283.521 71.2216C283.405 71.5246 283.347 71.8608 283.347 72.2301C283.347 72.6089 283.406 72.9439 283.524 73.2351C283.645 73.5239 283.822 73.7512 284.057 73.9169C284.293 74.0803 284.587 74.1619 284.937 74.1619ZM114.455 90.1136C113.93 90.1136 113.476 89.9976 113.095 89.7656C112.716 89.5312 112.424 89.2045 112.218 88.7855C112.015 88.3641 111.913 87.8741 111.913 87.3153C111.913 86.7566 112.015 86.2642 112.218 85.8381C112.424 85.4096 112.711 85.0758 113.078 84.8366C113.447 84.5952 113.878 84.4744 114.37 84.4744C114.654 84.4744 114.935 84.5218 115.212 84.6165C115.489 84.7112 115.741 84.8651 115.968 85.0781C116.195 85.2888 116.377 85.5682 116.511 85.9162C116.646 86.2642 116.714 86.6927 116.714 87.2017V87.5568H112.509V86.8324H115.862C115.862 86.5246 115.8 86.25 115.677 86.0085C115.556 85.767 115.383 85.5765 115.158 85.4368C114.936 85.2971 114.673 85.2273 114.37 85.2273C114.036 85.2273 113.747 85.3101 113.504 85.4759C113.262 85.6392 113.076 85.8523 112.946 86.1151C112.816 86.3778 112.751 86.6596 112.751 86.9602V87.4432C112.751 87.8551 112.822 88.2043 112.964 88.4908C113.108 88.7749 113.308 88.9915 113.564 89.1406C113.82 89.2874 114.117 89.3608 114.455 89.3608C114.676 89.3608 114.874 89.33 115.052 89.2685C115.232 89.2045 115.387 89.1098 115.517 88.9844C115.647 88.8565 115.748 88.6979 115.819 88.5085L116.629 88.7358C116.543 89.0104 116.4 89.2519 116.199 89.4602C115.998 89.6662 115.749 89.8272 115.453 89.9432C115.157 90.0568 114.825 90.1136 114.455 90.1136ZM118.827 82.7273V90H117.989V82.7273H118.827ZM120.362 90V84.5455H121.2V90H120.362ZM120.788 83.6364C120.625 83.6364 120.484 83.5807 120.365 83.4695C120.249 83.3582 120.191 83.2244 120.191 83.0682C120.191 82.9119 120.249 82.7782 120.365 82.6669C120.484 82.5556 120.625 82.5 120.788 82.5C120.951 82.5 121.091 82.5556 121.207 82.6669C121.325 82.7782 121.384 82.9119 121.384 83.0682C121.384 83.2244 121.325 83.3582 121.207 83.4695C121.091 83.5807 120.951 83.6364 120.788 83.6364ZM125.107 84.5455V85.2557H122.28V84.5455H125.107ZM123.104 83.2386H123.942V88.4375C123.942 88.6742 123.977 88.8518 124.045 88.9702C124.116 89.0862 124.206 89.1643 124.315 89.2045C124.426 89.2424 124.544 89.2614 124.667 89.2614C124.759 89.2614 124.835 89.2566 124.894 89.2472C124.953 89.2353 125 89.2259 125.036 89.2188L125.206 89.9716C125.15 89.9929 125.07 90.0142 124.968 90.0355C124.867 90.0592 124.738 90.071 124.581 90.071C124.345 90.071 124.113 90.0201 123.885 89.9183C123.66 89.8165 123.473 89.6615 123.324 89.4531C123.178 89.2448 123.104 88.982 123.104 88.6648V83.2386ZM132.618 87.7699V84.5455H133.456V90H132.618V89.0767H132.561C132.433 89.3537 132.234 89.5893 131.964 89.7834C131.694 89.9751 131.353 90.071 130.941 90.071C130.601 90.071 130.298 89.9964 130.032 89.8473C129.767 89.6958 129.559 89.4685 129.407 89.1655C129.256 88.8601 129.18 88.4754 129.18 88.0114V84.5455H130.018V87.9545C130.018 88.3523 130.129 88.6695 130.352 88.9062C130.577 89.143 130.863 89.2614 131.211 89.2614C131.42 89.2614 131.632 89.2081 131.847 89.1016C132.065 88.995 132.247 88.8317 132.394 88.6115C132.543 88.3913 132.618 88.1108 132.618 87.7699ZM137.363 84.5455V85.2557H134.536V84.5455H137.363ZM135.36 83.2386H136.198V88.4375C136.198 88.6742 136.232 88.8518 136.301 88.9702C136.372 89.0862 136.462 89.1643 136.571 89.2045C136.682 89.2424 136.799 89.2614 136.922 89.2614C137.015 89.2614 137.091 89.2566 137.15 89.2472C137.209 89.2353 137.256 89.2259 137.292 89.2188L137.462 89.9716C137.405 89.9929 137.326 90.0142 137.224 90.0355C137.123 90.0592 136.994 90.071 136.837 90.071C136.601 90.071 136.369 90.0201 136.141 89.9183C135.916 89.8165 135.729 89.6615 135.58 89.4531C135.433 89.2448 135.36 88.982 135.36 88.6648V83.2386ZM143.041 90.1278C142.695 90.1278 142.382 90.0627 142.1 89.9325C141.818 89.8 141.595 89.6094 141.429 89.3608C141.263 89.1098 141.18 88.8068 141.18 88.4517C141.18 88.1392 141.242 87.8859 141.365 87.6918C141.488 87.4953 141.653 87.3414 141.859 87.2301C142.065 87.1188 142.292 87.036 142.54 86.9815C142.791 86.9247 143.043 86.8797 143.297 86.8466C143.628 86.804 143.897 86.772 144.103 86.7507C144.311 86.727 144.463 86.688 144.557 86.6335C144.655 86.5791 144.703 86.4844 144.703 86.3494V86.321C144.703 85.9706 144.607 85.6984 144.415 85.5043C144.226 85.3101 143.938 85.2131 143.552 85.2131C143.152 85.2131 142.839 85.3007 142.611 85.4759C142.384 85.651 142.224 85.8381 142.132 86.0369L141.337 85.7528C141.479 85.4214 141.668 85.1634 141.905 84.9787C142.144 84.7917 142.404 84.6615 142.686 84.5881C142.97 84.5123 143.249 84.4744 143.524 84.4744C143.699 84.4744 143.9 84.4957 144.128 84.5384C144.357 84.5786 144.579 84.6626 144.792 84.7905C145.007 84.9183 145.186 85.1113 145.328 85.3693C145.47 85.6274 145.541 85.973 145.541 86.4062V90H144.703V89.2614H144.66C144.604 89.3797 144.509 89.5064 144.376 89.6413C144.244 89.7763 144.067 89.8911 143.847 89.9858C143.627 90.0805 143.358 90.1278 143.041 90.1278ZM143.169 89.375C143.5 89.375 143.78 89.3099 144.007 89.1797C144.237 89.0495 144.409 88.8814 144.525 88.6754C144.644 88.4695 144.703 88.2528 144.703 88.0256V87.2585C144.668 87.3011 144.589 87.3402 144.469 87.3757C144.35 87.4089 144.213 87.4384 144.057 87.4645C143.903 87.4882 143.753 87.5095 143.606 87.5284C143.461 87.545 143.344 87.5592 143.254 87.571C143.036 87.5994 142.833 87.6456 142.643 87.7095C142.456 87.7711 142.305 87.8646 142.189 87.9901C142.075 88.1132 142.018 88.2812 142.018 88.4943C142.018 88.7855 142.126 89.0057 142.342 89.1548C142.559 89.3016 142.835 89.375 143.169 89.375ZM147.909 82.7273V90H147.071V82.7273H147.909ZM149.444 90V84.5455H150.282V90H149.444ZM149.87 83.6364C149.707 83.6364 149.566 83.5807 149.447 83.4695C149.331 83.3582 149.273 83.2244 149.273 83.0682C149.273 82.9119 149.331 82.7782 149.447 82.6669C149.566 82.5556 149.707 82.5 149.87 82.5C150.033 82.5 150.173 82.5556 150.289 82.6669C150.407 82.7782 150.467 82.9119 150.467 83.0682C150.467 83.2244 150.407 83.3582 150.289 83.4695C150.173 83.5807 150.033 83.6364 149.87 83.6364ZM155.538 92.0455V89.1619H155.467C155.406 89.2614 155.318 89.3868 155.205 89.5384C155.091 89.6875 154.929 89.8213 154.718 89.9396C154.507 90.0556 154.227 90.1136 153.877 90.1136C153.422 90.1136 153.021 89.9988 152.673 89.7692C152.325 89.5372 152.052 89.2105 151.856 88.7891C151.659 88.3653 151.561 87.8646 151.561 87.2869C151.561 86.714 151.659 86.2169 151.856 85.7955C152.052 85.3741 152.326 85.0485 152.676 84.8189C153.027 84.5893 153.431 84.4744 153.891 84.4744C154.246 84.4744 154.526 84.5336 154.732 84.652C154.941 84.768 155.099 84.9006 155.208 85.0497C155.319 85.1965 155.406 85.3172 155.467 85.4119H155.567V84.5455H156.377V92.0455H155.538ZM153.99 89.3608C154.326 89.3608 154.61 89.2732 154.842 89.098C155.074 88.9205 155.251 88.6754 155.372 88.3629C155.492 88.0481 155.553 87.6847 155.553 87.2727C155.553 86.8655 155.493 86.5092 155.375 86.2038C155.257 85.8961 155.082 85.657 154.85 85.4865C154.618 85.3137 154.331 85.2273 153.99 85.2273C153.635 85.2273 153.339 85.3184 153.102 85.5007C152.868 85.6806 152.692 85.9257 152.573 86.2358C152.457 86.5436 152.399 86.8892 152.399 87.2727C152.399 87.661 152.458 88.0137 152.577 88.331C152.698 88.6458 152.875 88.8968 153.109 89.0838C153.346 89.2685 153.64 89.3608 153.99 89.3608ZM161.348 87.7699V84.5455H162.186V90H161.348V89.0767H161.291C161.163 89.3537 160.965 89.5893 160.695 89.7834C160.425 89.9751 160.084 90.071 159.672 90.071C159.331 90.071 159.028 89.9964 158.763 89.8473C158.498 89.6958 158.289 89.4685 158.138 89.1655C157.986 88.8601 157.911 88.4754 157.911 88.0114V84.5455H158.749V87.9545C158.749 88.3523 158.86 88.6695 159.082 88.9062C159.307 89.143 159.594 89.2614 159.942 89.2614C160.15 89.2614 160.362 89.2081 160.578 89.1016C160.795 88.995 160.978 88.8317 161.124 88.6115C161.274 88.3913 161.348 88.1108 161.348 87.7699ZM165.326 90.1278C164.981 90.1278 164.667 90.0627 164.385 89.9325C164.103 89.8 163.88 89.6094 163.714 89.3608C163.548 89.1098 163.465 88.8068 163.465 88.4517C163.465 88.1392 163.527 87.8859 163.65 87.6918C163.773 87.4953 163.938 87.3414 164.144 87.2301C164.35 87.1188 164.577 87.036 164.826 86.9815C165.076 86.9247 165.329 86.8797 165.582 86.8466C165.913 86.804 166.182 86.772 166.388 86.7507C166.596 86.727 166.748 86.688 166.843 86.6335C166.94 86.5791 166.988 86.4844 166.988 86.3494V86.321C166.988 85.9706 166.892 85.6984 166.701 85.5043C166.511 85.3101 166.224 85.2131 165.838 85.2131C165.438 85.2131 165.124 85.3007 164.897 85.4759C164.669 85.651 164.509 85.8381 164.417 86.0369L163.622 85.7528C163.764 85.4214 163.953 85.1634 164.19 84.9787C164.429 84.7917 164.689 84.6615 164.971 84.5881C165.255 84.5123 165.535 84.4744 165.809 84.4744C165.984 84.4744 166.186 84.4957 166.413 84.5384C166.643 84.5786 166.864 84.6626 167.077 84.7905C167.292 84.9183 167.471 85.1113 167.613 85.3693C167.755 85.6274 167.826 85.973 167.826 86.4062V90H166.988V89.2614H166.946C166.889 89.3797 166.794 89.5064 166.661 89.6413C166.529 89.7763 166.353 89.8911 166.132 89.9858C165.912 90.0805 165.643 90.1278 165.326 90.1278ZM165.454 89.375C165.786 89.375 166.065 89.3099 166.292 89.1797C166.522 89.0495 166.695 88.8814 166.811 88.6754C166.929 88.4695 166.988 88.2528 166.988 88.0256V87.2585C166.953 87.3011 166.875 87.3402 166.754 87.3757C166.635 87.4089 166.498 87.4384 166.342 87.4645C166.188 87.4882 166.038 87.5095 165.891 87.5284C165.746 87.545 165.629 87.5592 165.539 87.571C165.322 87.5994 165.118 87.6456 164.929 87.7095C164.742 87.7711 164.59 87.8646 164.474 87.9901C164.36 88.1132 164.304 88.2812 164.304 88.4943C164.304 88.7855 164.411 89.0057 164.627 89.1548C164.844 89.3016 165.12 89.375 165.454 89.375ZM169.356 90V84.5455H170.166V85.3977H170.237C170.35 85.1065 170.534 84.8804 170.787 84.7195C171.04 84.5561 171.345 84.4744 171.7 84.4744C172.06 84.4744 172.359 84.5561 172.598 84.7195C172.84 84.8804 173.028 85.1065 173.163 85.3977H173.22C173.359 85.116 173.569 84.8923 173.848 84.7266C174.127 84.5585 174.462 84.4744 174.853 84.4744C175.341 84.4744 175.74 84.6271 176.05 84.9325C176.36 85.2356 176.515 85.7079 176.515 86.3494V90H175.677V86.3494C175.677 85.947 175.567 85.6593 175.347 85.4865C175.127 85.3137 174.867 85.2273 174.569 85.2273C174.185 85.2273 173.888 85.3433 173.678 85.5753C173.467 85.8049 173.362 86.0961 173.362 86.4489V90H172.509V86.2642C172.509 85.9541 172.409 85.7043 172.207 85.5149C172.006 85.3232 171.747 85.2273 171.43 85.2273C171.212 85.2273 171.008 85.2853 170.819 85.4013C170.632 85.5173 170.48 85.6783 170.364 85.8842C170.251 86.0878 170.194 86.3234 170.194 86.5909V90H169.356ZM179.297 89.0057L179.241 89.3892C179.2 89.6591 179.139 89.9479 179.056 90.2557C178.975 90.5634 178.891 90.8535 178.804 91.1257C178.716 91.398 178.644 91.6146 178.587 91.7756H177.948C177.979 91.6241 178.019 91.424 178.069 91.1754C178.118 90.9268 178.168 90.6487 178.218 90.3409C178.27 90.0355 178.312 89.723 178.346 89.4034L178.388 89.0057H179.297ZM183.663 92.0455V84.5455H184.472V85.4119H184.572C184.633 85.3172 184.718 85.1965 184.827 85.0497C184.939 84.9006 185.097 84.768 185.303 84.652C185.512 84.5336 185.793 84.4744 186.148 84.4744C186.608 84.4744 187.012 84.5893 187.363 84.8189C187.713 85.0485 187.987 85.3741 188.183 85.7955C188.38 86.2169 188.478 86.714 188.478 87.2869C188.478 87.8646 188.38 88.3653 188.183 88.7891C187.987 89.2105 187.714 89.5372 187.366 89.7692C187.018 89.9988 186.617 90.1136 186.163 90.1136C185.812 90.1136 185.532 90.0556 185.321 89.9396C185.11 89.8213 184.948 89.6875 184.834 89.5384C184.721 89.3868 184.633 89.2614 184.572 89.1619H184.501V92.0455H183.663ZM184.486 87.2727C184.486 87.6847 184.547 88.0481 184.668 88.3629C184.788 88.6754 184.965 88.9205 185.197 89.098C185.429 89.2732 185.713 89.3608 186.049 89.3608C186.399 89.3608 186.692 89.2685 186.926 89.0838C187.163 88.8968 187.34 88.6458 187.459 88.331C187.579 88.0137 187.64 87.661 187.64 87.2727C187.64 86.8892 187.581 86.5436 187.462 86.2358C187.346 85.9257 187.17 85.6806 186.933 85.5007C186.699 85.3184 186.404 85.2273 186.049 85.2273C185.708 85.2273 185.422 85.3137 185.19 85.4865C184.958 85.657 184.782 85.8961 184.664 86.2038C184.546 86.5092 184.486 86.8655 184.486 87.2727ZM193.194 87.7699V84.5455H194.032V90H193.194V89.0767H193.137C193.009 89.3537 192.81 89.5893 192.54 89.7834C192.271 89.9751 191.93 90.071 191.518 90.071C191.177 90.071 190.874 89.9964 190.609 89.8473C190.343 89.6958 190.135 89.4685 189.984 89.1655C189.832 88.8601 189.756 88.4754 189.756 88.0114V84.5455H190.594V87.9545C190.594 88.3523 190.706 88.6695 190.928 88.9062C191.153 89.143 191.44 89.2614 191.788 89.2614C191.996 89.2614 192.208 89.2081 192.423 89.1016C192.641 88.995 192.823 88.8317 192.97 88.6115C193.119 88.3913 193.194 88.1108 193.194 87.7699ZM195.567 90V84.5455H196.377V85.3693H196.433C196.533 85.0994 196.713 84.8804 196.973 84.7124C197.234 84.5443 197.527 84.4602 197.854 84.4602C197.915 84.4602 197.992 84.4614 198.085 84.4638C198.177 84.4661 198.247 84.4697 198.294 84.4744V85.3267C198.266 85.3196 198.201 85.3089 198.099 85.2947C197.999 85.2782 197.894 85.2699 197.783 85.2699C197.518 85.2699 197.281 85.3255 197.073 85.4368C196.867 85.5457 196.703 85.6972 196.582 85.8913C196.464 86.0831 196.405 86.3021 196.405 86.5483V90H195.567ZM202.725 87.7699V84.5455H203.563V90H202.725V89.0767H202.668C202.54 89.3537 202.342 89.5893 202.072 89.7834C201.802 89.9751 201.461 90.071 201.049 90.071C200.708 90.071 200.405 89.9964 200.14 89.8473C199.875 89.6958 199.666 89.4685 199.515 89.1655C199.363 88.8601 199.288 88.4754 199.288 88.0114V84.5455H200.126V87.9545C200.126 88.3523 200.237 88.6695 200.459 88.9062C200.684 89.143 200.971 89.2614 201.319 89.2614C201.527 89.2614 201.739 89.2081 201.954 89.1016C202.172 88.995 202.355 88.8317 202.501 88.6115C202.65 88.3913 202.725 88.1108 202.725 87.7699ZM208.962 85.767L208.209 85.9801C208.162 85.8546 208.092 85.7327 207.999 85.6143C207.909 85.4936 207.786 85.3942 207.63 85.3161C207.474 85.2379 207.274 85.1989 207.03 85.1989C206.696 85.1989 206.418 85.2758 206.195 85.4297C205.975 85.5812 205.865 85.7741 205.865 86.0085C205.865 86.2169 205.941 86.3814 206.092 86.5021C206.244 86.6229 206.481 86.7235 206.803 86.804L207.612 87.0028C208.1 87.1212 208.463 87.3023 208.703 87.5462C208.942 87.7876 209.061 88.099 209.061 88.4801C209.061 88.7926 208.971 89.072 208.791 89.3182C208.614 89.5644 208.365 89.7585 208.046 89.9006C207.726 90.0426 207.354 90.1136 206.93 90.1136C206.374 90.1136 205.914 89.9929 205.549 89.7514C205.185 89.5099 204.954 89.1572 204.857 88.6932L205.652 88.4943C205.728 88.7879 205.871 89.008 206.082 89.1548C206.295 89.3016 206.573 89.375 206.916 89.375C207.307 89.375 207.617 89.2921 207.847 89.1264C208.079 88.9583 208.195 88.7571 208.195 88.5227C208.195 88.3333 208.128 88.1747 207.996 88.0469C207.863 87.9167 207.66 87.8196 207.385 87.7557L206.476 87.5426C205.976 87.4242 205.609 87.2408 205.375 86.9922C205.143 86.7412 205.027 86.4276 205.027 86.0511C205.027 85.7434 205.113 85.4711 205.286 85.2344C205.461 84.9976 205.699 84.8118 206 84.6768C206.303 84.5419 206.646 84.4744 207.03 84.4744C207.57 84.4744 207.993 84.5928 208.301 84.8295C208.611 85.0663 208.832 85.3788 208.962 85.767ZM216.999 85.767L216.246 85.9801C216.199 85.8546 216.129 85.7327 216.036 85.6143C215.947 85.4936 215.823 85.3942 215.667 85.3161C215.511 85.2379 215.311 85.1989 215.067 85.1989C214.733 85.1989 214.455 85.2758 214.233 85.4297C214.012 85.5812 213.902 85.7741 213.902 86.0085C213.902 86.2169 213.978 86.3814 214.13 86.5021C214.281 86.6229 214.518 86.7235 214.84 86.804L215.649 87.0028C216.137 87.1212 216.501 87.3023 216.74 87.5462C216.979 87.7876 217.098 88.099 217.098 88.4801C217.098 88.7926 217.008 89.072 216.828 89.3182C216.651 89.5644 216.402 89.7585 216.083 89.9006C215.763 90.0426 215.391 90.1136 214.968 90.1136C214.411 90.1136 213.951 89.9929 213.586 89.7514C213.222 89.5099 212.991 89.1572 212.894 88.6932L213.689 88.4943C213.765 88.7879 213.908 89.008 214.119 89.1548C214.332 89.3016 214.61 89.375 214.953 89.375C215.344 89.375 215.654 89.2921 215.884 89.1264C216.116 88.9583 216.232 88.7571 216.232 88.5227C216.232 88.3333 216.166 88.1747 216.033 88.0469C215.9 87.9167 215.697 87.8196 215.422 87.7557L214.513 87.5426C214.014 87.4242 213.647 87.2408 213.412 86.9922C213.18 86.7412 213.064 86.4276 213.064 86.0511C213.064 85.7434 213.151 85.4711 213.323 85.2344C213.499 84.9976 213.737 84.8118 214.037 84.6768C214.34 84.5419 214.684 84.4744 215.067 84.4744C215.607 84.4744 216.031 84.5928 216.338 84.8295C216.648 85.0663 216.869 85.3788 216.999 85.767ZM218.36 90V84.5455H219.198V90H218.36ZM218.786 83.6364C218.623 83.6364 218.482 83.5807 218.363 83.4695C218.247 83.3582 218.189 83.2244 218.189 83.0682C218.189 82.9119 218.247 82.7782 218.363 82.6669C218.482 82.5556 218.623 82.5 218.786 82.5C218.949 82.5 219.089 82.5556 219.205 82.6669C219.323 82.7782 219.383 82.9119 219.383 83.0682C219.383 83.2244 219.323 83.3582 219.205 83.4695C219.089 83.5807 218.949 83.6364 218.786 83.6364ZM223.105 84.5455V85.2557H220.278V84.5455H223.105ZM221.102 83.2386H221.94V88.4375C221.94 88.6742 221.975 88.8518 222.043 88.9702C222.114 89.0862 222.204 89.1643 222.313 89.2045C222.424 89.2424 222.542 89.2614 222.665 89.2614C222.757 89.2614 222.833 89.2566 222.892 89.2472C222.951 89.2353 222.998 89.2259 223.034 89.2188L223.204 89.9716C223.148 89.9929 223.068 90.0142 222.967 90.0355C222.865 90.0592 222.736 90.071 222.579 90.071C222.343 90.071 222.111 90.0201 221.883 89.9183C221.659 89.8165 221.472 89.6615 221.322 89.4531C221.176 89.2448 221.102 88.982 221.102 88.6648V83.2386Z" fill="black"/>
</svg>
