<svg width="20" height="20" viewBox="0 0 20 20" fill="none" xmlns="http://www.w3.org/2000/svg">
<path d="M13.4501 2.46664L5.9251 4.96664C0.866764 6.65831 0.866764 9.41664 5.9251 11.1L8.15843 11.8416L8.9001 14.075C10.5834 19.1333 13.3501 19.1333 15.0334 14.075L17.5418 6.55831C18.6584 3.18331 16.8251 1.34164 13.4501 2.46664ZM13.7168 6.94997L10.5501 10.1333C10.4251 10.2583 10.2668 10.3166 10.1084 10.3166C9.9501 10.3166 9.79177 10.2583 9.66677 10.1333C9.4251 9.89164 9.4251 9.49164 9.66677 9.24997L12.8334 6.06664C13.0751 5.82497 13.4751 5.82497 13.7168 6.06664C13.9584 6.30831 13.9584 6.70831 13.7168 6.94997Z" fill="#6E7831"/>
</svg>
