<svg width="30" height="30" viewBox="0 0 30 30" fill="none" xmlns="http://www.w3.org/2000/svg">
<circle opacity="0.1" cx="15" cy="15" r="15" fill="#E75B42"/>
<path fill-rule="evenodd" clip-rule="evenodd" d="M15.1688 21.5232C15.4127 21.7671 15.7278 21.9272 16.0686 21.9805C16.4094 22.0337 16.7583 21.9773 17.0649 21.8195C17.3716 21.6616 17.6202 21.4104 17.7749 21.1021C17.9296 20.7938 17.9823 20.4443 17.9255 20.1041L17.5189 17.6644C18.4535 17.6307 19.3387 17.2358 19.9879 16.5626C20.6372 15.8895 21 14.9907 21 14.0555V12.611C21 11.6533 20.6195 10.7348 19.9423 10.0576C19.2651 9.38036 18.3466 8.99991 17.3889 8.99991H11.6111V17.9656L15.1688 21.5232ZM10.1667 17.6666C9.59203 17.6666 9.04093 17.4383 8.6346 17.032C8.22827 16.6256 8 16.0745 8 15.4999V11.1666C8 10.5919 8.22827 10.0408 8.6346 9.63451C9.04093 9.22818 9.59203 8.99991 10.1667 8.99991V17.6666Z" fill="#E75B42"/>
</svg>
