<svg width="30" height="30" viewBox="0 0 30 30" fill="none" xmlns="http://www.w3.org/2000/svg">
<circle opacity="0.1" cx="15" cy="15" r="15" fill="#6E7831"/>
<path fill-rule="evenodd" clip-rule="evenodd" d="M15.1688 8.47676C15.4127 8.23287 15.7278 8.07275 16.0686 8.01951C16.4094 7.96627 16.7583 8.02266 17.0649 8.18053C17.3716 8.33841 17.6202 8.58962 17.7749 8.89793C17.9296 9.20624 17.9823 9.5557 17.9255 9.89593L17.5189 12.3356C18.4535 12.3693 19.3387 12.7642 19.9879 13.4374C20.6372 14.1105 21 15.0093 21 15.9445V17.389C21 18.3467 20.6195 19.2652 19.9423 19.9424C19.2651 20.6196 18.3466 21.0001 17.3889 21.0001H11.6111V12.0344L15.1688 8.47676ZM10.1667 12.3334C9.59203 12.3334 9.04093 12.5617 8.6346 12.968C8.22827 13.3744 8 13.9255 8 14.5001V18.8334C8 19.4081 8.22827 19.9592 8.6346 20.3655C9.04093 20.7718 9.59203 21.0001 10.1667 21.0001V12.3334Z" fill="#6E7831"/>
</svg>
