<svg width="30" height="30" viewBox="0 0 30 30" fill="none" xmlns="http://www.w3.org/2000/svg">
<circle opacity="0.1" cx="15" cy="15" r="15" fill="black"/>
<path fill-rule="evenodd" clip-rule="evenodd" d="M11.2108 10.6691C10.625 11.2549 10.625 12.1977 10.625 14.0833V16.0417C10.625 17.7926 10.625 18.6681 10.9792 19.3309C11.2589 19.8541 11.6875 20.2827 12.2108 20.5624C12.3967 20.6618 12.5993 20.7333 12.8333 20.7847V19.2917C12.8333 19.0155 13.0572 18.7917 13.3333 18.7917C13.6095 18.7917 13.8333 19.0155 13.8333 19.2917V20.8966C14.2849 20.9167 14.828 20.9167 15.5 20.9167C16.172 20.9167 16.7151 20.9167 17.1667 20.8966L17.1667 19.2917C17.1667 19.0155 17.3905 18.7917 17.6667 18.7917C17.9428 18.7917 18.1667 19.0155 18.1667 19.2917L18.1667 20.7847C18.4007 20.7333 18.6033 20.6618 18.7892 20.5624C19.3125 20.2827 19.7411 19.8541 20.0208 19.3309C20.375 18.6681 20.375 17.7926 20.375 16.0417V14.0833C20.375 12.1977 20.375 11.2549 19.7892 10.6691C19.2034 10.0833 18.2606 10.0833 16.375 10.0833H14.625C12.7394 10.0833 11.7966 10.0833 11.2108 10.6691ZM13.3333 13.375C13.0572 13.375 12.8333 13.5989 12.8333 13.875C12.8333 14.1511 13.0572 14.375 13.3333 14.375H17.6667C17.9428 14.375 18.1667 14.1511 18.1667 13.875C18.1667 13.5989 17.9428 13.375 17.6667 13.375H13.3333ZM13.3333 16.5417L17.6667 16.5417C17.9428 16.5417 18.1667 16.3178 18.1667 16.0417C18.1667 15.7655 17.9428 15.5417 17.6667 15.5417L13.3333 15.5417C13.0572 15.5417 12.8333 15.7655 12.8333 16.0417C12.8333 16.3178 13.0572 16.5417 13.3333 16.5417Z" fill="#222222"/>
</svg>
