<svg width="120" height="120" viewBox="0 0 120 120" fill="none" xmlns="http://www.w3.org/2000/svg">
<circle opacity="0.1" cx="60" cy="60" r="60" fill="black"/>
<g opacity="0.3">
<path d="M60 40C54.76 40 50.5 44.26 50.5 49.5C50.5 54.64 54.52 58.8 59.76 58.98C59.92 58.96 60.08 58.96 60.2 58.98C60.24 58.98 60.26 58.98 60.3 58.98C60.32 58.98 60.32 58.98 60.34 58.98C65.46 58.8 69.48 54.64 69.5 49.5C69.5 44.26 65.24 40 60 40Z" fill="black"/>
<path d="M70.16 64.2998C64.58 60.5798 55.48 60.5798 49.86 64.2998C47.32 65.9998 45.92 68.2998 45.92 70.7598C45.92 73.2198 47.32 75.4998 49.84 77.1798C52.64 79.0598 56.32 79.9998 60 79.9998C63.68 79.9998 67.36 79.0598 70.16 77.1798C72.68 75.4798 74.08 73.1998 74.08 70.7198C74.06 68.2598 72.68 65.9798 70.16 64.2998Z" fill="black"/>
</g>
</svg>
